<?xml version="1.0" standalone="no"?>
<!DOCTYPE svg PUBLIC "-//W3C//DTD SVG 1.1//EN" "http://www.w3.org/Graphics/SVG/1.1/DTD/svg11.dtd" >
<svg>
<metadata>
Created by FontForge 20110222 at Mon Mar  7 11:52:23 2011
 By www-data
Copyright [c]  - Roger White - 1994 - All Rights Reserved - see .txt file for terms of distribution and use.
</metadata>
<defs>
<font id="MilfordCondensedBold" horiz-adv-x="500" >
  <font-face 
    font-family="Milford Condensed"
    font-weight="700"
    font-stretch="condensed"
    units-per-em="1000"
    panose-1="2 11 8 0 0 0 0 0 0 0"
    ascent="800"
    descent="-200"
    x-height="564"
    cap-height="752"
    bbox="-29 -237 1084 971"
    underline-thickness="50"
    underline-position="-50"
    unicode-range="U+0020-2122"
  />
    <missing-glyph />
    <glyph glyph-name="space" unicode=" " horiz-adv-x="275" 
 />
    <glyph glyph-name="space" unicode="&#xa0;" horiz-adv-x="275" 
 />
    <glyph glyph-name="exclam" unicode="!" horiz-adv-x="293" 
d="M213 510v242h-135q0 -266 3 -293l5 -53l18 -209h84l16 209l6 52zM209 0v137h-129v-137h129z" />
    <glyph glyph-name="quotedbl" unicode="&#x22;" horiz-adv-x="330" 
d="M293 430v271h-96v-271h96zM133 430v271h-94v-271h94z" />
    <glyph glyph-name="numbersign" unicode="#" horiz-adv-x="770" 
d="M746 512h-137l73 203h-110l-70 -203h-119l70 203h-107l-73 -203h-144l-35 -98h144l-41 -117h-138l-38 -100h141l-72 -201h107l74 201h120l-73 -201h108l72 201h143l35 100h-143l41 117h137zM469 414l-43 -119h-123l43 119h123z" />
    <glyph glyph-name="dollar" unicode="$" 
d="M463 200q0 68 -24 111q-24 44 -69 75l-100 61v201q34 0 48 -35q10 -21 10 -64h117q0 93 -40 143q-40 51 -128 51h-4v68h-54v-68q-40 0 -72 -15q-34 -18 -56 -40q-46 -49 -46 -119t25 -114q24 -45 65 -77q32 -29 88 -58v-220q-48 12 -61 52q-8 21 -8 84h-119q0 -12 1 -21
q0 -16 4 -43l11 -53q20 -60 55 -86q45 -33 113 -33v-98h54v98q44 0 79 17t60 42q51 54 51 141zM223 475q-29 23 -41 41q-19 25 -19 55q0 28 14 51q17 25 46 26v-173zM336 189q0 -34 -17 -59q-16 -24 -49 -30v197q36 -22 48 -45q18 -27 18 -63z" />
    <glyph glyph-name="percent" unicode="%" horiz-adv-x="771" 
d="M354 570q0 94 -31 137q-37 51 -124 51t-123 -50q-31 -40 -31 -132q0 -90 29 -137q38 -56 121 -56q85 0 124 53q35 47 35 134zM256 568q0 -19 -2 -41q-1 -16 -6 -30q-15 -38 -49 -38q-35 0 -49 29q-7 14 -7 58q0 50 3 72q4 18 6 26q2 7 3 9q1 6 2 8q6 14 18 18q11 3 38 3
q25 0 37 -43q6 -24 6 -71zM594 758h-74l-344 -772h72zM727 174q0 81 -29 128q-36 57 -110 57q-105 0 -141 -50q-31 -43 -31 -133q0 -91 30 -135q37 -55 122 -55q86 0 125 53q34 43 34 135zM629 172q0 -45 -8 -72q-15 -39 -51 -39q-38 0 -49 41q-5 22 -5 69q0 23 2 45
q2 17 6 29q15 38 50 38q37 0 49 -41q6 -24 6 -70z" />
    <glyph glyph-name="ampersand" unicode="&#x26;" horiz-adv-x="658" 
d="M609 -1l-89 151q32 51 49 116q15 63 15 130h-115l-1 -36l-3 -32q-5 -40 -14 -62l-90 156q47 34 78 82q30 47 30 111q0 62 -46 99t-116 37q-74 0 -118 -40q-46 -40 -46 -88t9 -77l10 -27l12 -25l27 -51l-75 -66q-33 -34 -49 -68q-19 -38 -19 -119q0 -80 58 -141
q58 -62 132 -62q71 0 111 14q40 18 77 47l25 -49h148zM357 605q0 -25 -14 -48q-15 -23 -38 -41l-22 36q-23 35 -23 61q0 27 16 37t39 10t34 -17q8 -14 8 -38zM383 139l-27 -18l-16 -9q-27 -12 -60 -12q-35 0 -62 37q-27 38 -27 76q0 40 20 77q19 33 49 54z" />
    <glyph glyph-name="quotesingle" unicode="'" horiz-adv-x="250" 
d="M180 617v135h-121v-127h62q0 -36 -15 -60q-15 -23 -47 -28v-47q54 10 88 44q33 32 33 83z" />
    <glyph glyph-name="parenleft" unicode="(" horiz-adv-x="328" 
d="M300 -189q-58 108 -80 221q-13 66 -17 116q-5 58 -5 113q0 115 9 197l11 82l18 79q10 32 12 41q4 11 14 37l34 73h-82q-73 -92 -110 -219q-18 -61 -28 -128q-9 -63 -9 -129q0 -132 37 -250q15 -44 24 -64q8 -21 23 -53q33 -64 68 -116h81z" />
    <glyph glyph-name="parenright" unicode=")" horiz-adv-x="328" 
d="M264 299q0 127 -37 250t-110 221h-82q38 -66 62 -154l19 -78q9 -48 9 -86q8 -77 8 -189q0 -114 -21 -221q-25 -126 -81 -231h82q78 114 114 232q18 55 28 124q9 65 9 132z" />
    <glyph glyph-name="asterisk" unicode="*" 
d="M438 582l-28 88l-115 -39v121h-90v-121l-115 39l-27 -88l113 -37l-71 -98l75 -52l70 97l70 -97l75 52l-71 98z" />
    <glyph glyph-name="plus" unicode="+" horiz-adv-x="832" 
d="M709 250v98h-243v248h-99v-248h-244v-98h244l-1 -250h100v250h243z" />
    <glyph glyph-name="comma" unicode="," horiz-adv-x="250" 
d="M188 0v135h-125v-135h68q0 -35 -19 -63q-20 -30 -49 -33v-50q60 10 93 48q32 38 32 98z" />
    <glyph glyph-name="hyphen" unicode="-" horiz-adv-x="328" 
d="M283 225v117h-238v-117h238z" />
    <glyph glyph-name="period" unicode="." horiz-adv-x="250" 
d="M188 0v135h-125v-135h125z" />
    <glyph glyph-name="slash" unicode="/" horiz-adv-x="307" 
d="M326 770h-74l-281 -862h74z" />
    <glyph glyph-name="zero" unicode="0" 
d="M458 304v107q0 41 -2 93q-1 32 -5 62q-10 71 -34 117q-33 58 -80 64l-50 7q-24 3 -81 3q-58 0 -107 -58q-40 -46 -48 -116q-8 -74 -8 -133l-1 -100v-89q0 -48 11 -111q17 -78 58 -116q51 -48 139 -48q90 0 139 48q42 40 58 118q1 6 4 22q3 14 3 15q1 7 1 31zM318 215
q0 -25 -2 -51q-1 -18 -6 -32q-15 -42 -60 -42q-46 0 -61 40q-7 18 -7 78q0 371 8 400q15 44 60 44q46 0 60 -41q8 -24 8 -79v-317z" />
    <glyph glyph-name="one" unicode="1" 
d="M344 0v758h-94q-15 -77 -73 -110q-50 -29 -132 -29v-91h166v-528h133z" />
    <glyph glyph-name="two" unicode="2" 
d="M461 552q0 102 -54 154q-55 52 -134 52q-76 0 -124 -17q-53 -21 -70 -63t-24 -79q-8 -40 -8 -83v-10h131q0 72 6 94q15 55 59 55q45 0 63 -32q8 -14 11 -28q3 -13 3 -31q0 -34 -6 -58t-18 -42l-33 -42l-38 -39l-36 -35l-31 -35q-15 -15 -19 -21l-15 -21l-27 -41
q-30 -49 -37 -81l-11 -53l-3 -36l-3 -60h408v119h-265q7 22 16 38l25 38l24 33l30 35l60 62l32 35l30 33q28 33 43 72q15 38 15 87z" />
    <glyph glyph-name="three" unicode="3" 
d="M462 217q0 68 -20 116q-25 58 -85 73q43 15 69 62q21 42 21 113q0 72 -54 124q-54 53 -199 53q-146 0 -146 -102v-113l1 -10h129q0 45 5 75q12 47 49 47l29 2q24 0 40 -33q11 -24 11 -78t-32 -77q-28 -20 -96 -20v-97l23 2h46q34 0 56 -34q15 -27 15 -87q0 -57 -11 -93
q-19 -48 -67 -48q-52 0 -67 61q-7 22 -7 77v24h-131q0 -38 2 -78q1 -31 6 -52q10 -44 35 -75q30 -36 92 -53l15 -4l21 -3q17 -3 53 -3h12h15q61 0 116 61q54 60 54 170z" />
    <glyph glyph-name="four" unicode="4" 
d="M463 149v114h-63v479h-142l-223 -472v-122h236v-148h129v148zM275 258l-140 1l140 305v-306z" />
    <glyph glyph-name="five" unicode="5" 
d="M457 269q0 84 -19 134q-15 43 -45 65q-31 23 -62 35t-64 12l-33 -3l-30 -9q-15 -6 -42 -30l8 150h252v119h-356l-19 -392l121 2q0 27 25 43q26 15 40 15l24 -2l11 -5q30 -16 43 -59l3 -10l4 -16q1 -7 1 -31l-2 -54l-3 -45l-2 -28l-3 -21q-9 -34 -25 -40l-21 -8
q-9 -4 -41 -4q-28 0 -45 57q-7 21 -7 96h-131q0 -79 16 -133q15 -56 60 -89q44 -33 126 -33q84 0 135 39q48 35 64 96q17 62 17 149z" />
    <glyph glyph-name="six" unicode="6" 
d="M458 241q0 74 -9 122q-15 68 -47 102q-40 43 -93 43q-54 0 -81 -13q-29 -15 -46 -38l-1 33l-1 58q0 34 12 62q21 45 58 45q38 0 52 -20q11 -17 11 -47h128q0 86 -53 130q-46 40 -122 40q-74 0 -123 -28q-51 -29 -69 -79l-2 -6q-9 -25 -11 -38q-5 -26 -9 -50
q-4 -27 -6 -41q-2 -16 -2 -39l-1 -104l2 -122l3 -47l8 -49q11 -57 30 -88q16 -23 30 -37l16 -14l22 -14q13 -9 37 -12q17 -5 56 -5h12h14h17q75 0 126 75q42 63 42 181zM318 209q0 -48 -10 -75q-16 -39 -58 -39q-44 0 -59 48q-9 30 -9 85q0 91 12 121q18 47 60 47
q43 0 56 -42l3 -9q3 -14 4 -18q1 -7 1 -44v-74z" />
    <glyph glyph-name="seven" unicode="7" 
d="M457 635v107h-416v-123h281q-51 -99 -90 -195q-20 -47 -41 -110q-17 -52 -29 -103q-29 -117 -29 -211h144q0 13 2 43v3q1 15 5 49l20 113l27 113l30 97q19 59 44 110l26 56z" />
    <glyph glyph-name="eight" unicode="8" 
d="M455 217q0 79 -19 118q-27 56 -92 71q55 24 76 63t21 114t-50 125q-49 49 -141 49t-140 -49q-49 -49 -49 -124t22 -115q21 -42 71 -63q-67 -18 -91 -75q-18 -43 -18 -136t46 -148q50 -59 159 -59q107 0 159 61q46 55 46 168zM313 555q0 -37 -11 -67q-16 -33 -53 -33
q-38 0 -52 35q-8 21 -8 66q0 39 8 66q13 34 52 34q38 0 54 -31q10 -20 10 -70zM318 225q0 -54 -8 -84q-15 -46 -60 -46q-46 0 -61 46q-7 21 -7 83q0 53 8 85q13 49 60 49q46 0 61 -45q7 -20 7 -88z" />
    <glyph glyph-name="nine" unicode="9" 
d="M454 451q0 93 -12 148q-2 12 -7 29l-3 9q-6 17 -13 28q-13 27 -36 47q-49 46 -104 46q-39 0 -49 -1h-3q-19 -2 -31 -4q-19 -4 -33 -9q-58 -21 -85 -64t-33 -102q-4 -21 -4 -47l-1 -60q0 -68 13 -116q18 -58 51 -85q41 -35 90 -35q48 0 79 14q30 12 45 36l1 -13v-40
l-3 -62q-7 -70 -26 -75l-29 -6l-28 -1q-19 0 -32 19t-13 49h-131q0 -88 50 -132q48 -39 124 -39q78 0 127 27q60 33 72 87l13 60l6 39v3q2 14 2 17v16l2 99zM317 531l-1 -77l-4 -40l-11 -34q-9 -19 -21 -25q-11 -7 -44 -7q-32 0 -47 40q-9 26 -9 77q0 112 9 139q18 44 58 44
q45 0 60 -45q10 -27 10 -72z" />
    <glyph glyph-name="colon" unicode=":" horiz-adv-x="273" 
d="M199 422v136h-125v-136h125zM199 0v135h-125v-135h125z" />
    <glyph glyph-name="semicolon" unicode=";" horiz-adv-x="273" 
d="M199 422v136h-125v-136h125zM199 -8v143h-125v-135h67l1 -23q0 -16 -19 -44q-20 -29 -49 -29v-50q27 0 48 12q27 14 42 32q35 41 35 94z" />
    <glyph glyph-name="less" unicode="&#x3c;" horiz-adv-x="832" 
d="M703 14v105l-435 180l435 178v105l-574 -234v-98z" />
    <glyph glyph-name="equal" unicode="=" horiz-adv-x="832" 
d="M709 355v96h-586v-96h586zM709 145v97h-586v-97h586z" />
    <glyph glyph-name="greater" unicode="&#x3e;" horiz-adv-x="832" 
d="M703 250v98l-574 234v-105l437 -178l-437 -180v-105z" />
    <glyph glyph-name="question" unicode="?" horiz-adv-x="490" 
d="M440 577q0 90 -55 142q-55 51 -128 51q-72 0 -115 -22q-44 -23 -68 -69q-9 -19 -11 -27q-4 -9 -7 -32q-3 -21 -3 -69h123v8q0 44 9 66q15 41 51 41q38 0 54 -27q13 -22 13 -62q0 -42 -28 -86l-59 -76q-37 -48 -51 -87l-8 -25l-2 -18l-3 -44l-1 -29l1 -11h119l2 44l2 18
l5 20q13 39 55 91q64 74 70 86q35 56 35 117zM275 0v131h-125v-131h125z" />
    <glyph glyph-name="at" unicode="@" horiz-adv-x="1000" 
d="M955 383q0 108 -59 185q-60 77 -155 116q-94 39 -247 39q-156 0 -300 -129q-150 -135 -150 -329q0 -196 137 -309q127 -106 236 -106l92 1l56 3l66 8q54 9 106 36q54 29 103 65l-39 57q-60 -45 -141 -69q-81 -25 -200 -25q-115 0 -218 85q-109 91 -109 190t13 151
q16 52 36 91q52 99 158 151q97 49 180 49q81 0 133 -15l44 -15l48 -22q56 -30 89 -93t33 -130q0 -69 -34 -133q-35 -66 -95 -92l-24 -8q-13 -3 -35 -3q-23 0 -23 19l1 26l1 9l72 293h-85l-28 -50q-40 64 -130 64t-158 -87q-61 -79 -61 -173q0 -95 40 -137q39 -43 99 -43
q61 0 98 22q36 22 65 58l7 -25l8 -22q12 -16 41 -27q16 -5 28 -7q7 -1 31 -1q20 0 35 4q15 3 38 12q31 13 74 41q60 38 92 118q31 78 31 157zM594 342l-21 -91q-20 -63 -41 -87q-33 -40 -77 -40q-46 0 -65 28q-18 30 -18 83q0 55 34 116q42 72 89 72q49 0 72 -23
q21 -22 27 -58z" />
    <glyph glyph-name="A" unicode="A" horiz-adv-x="547" 
d="M537 0l-172 752h-187l-168 -752h142l36 189h162l37 -189h150zM328 304h-117l59 313z" />
    <glyph glyph-name="B" unicode="B" horiz-adv-x="545" 
d="M499 229q0 66 -24 111q-28 54 -88 64q52 12 74 61q19 37 19 72l-1 41v14q0 81 -56 123q-46 37 -134 37h-225v-752q305 0 357 33q61 39 70 108l6 49zM340 555q0 -66 -27 -89q-22 -19 -90 -19h-24v203q94 0 117 -19q24 -19 24 -76zM356 235q0 -75 -22 -100q-23 -29 -69 -29
l-66 1v239h22q42 0 60 -3q41 -9 55 -29q20 -26 20 -79z" />
    <glyph glyph-name="C" unicode="C" horiz-adv-x="549" 
d="M498 268h-135q0 -62 -6 -94q-12 -63 -44 -72l-20 -3l-24 -2q-13 1 -33 7q-16 7 -24 25q-9 20 -13 39q-1 2 -2 8q0 4 -2 11v34l-2 54l-2 76l1 133q0 33 3 60q3 31 7 44q19 70 73 70q53 0 73 -47q12 -30 12 -72l-1 -19h137q0 83 -29 152q-39 80 -113 92l-41 6l-80 2
q-57 0 -112 -55q-45 -48 -61 -135q-12 -63 -12 -140l1 -123q0 -16 1 -27q0 -22 4 -50l7 -59l7 -50q13 -76 73 -115q56 -35 140 -35q87 0 137 37q45 32 65 100q15 57 15 148z" />
    <glyph glyph-name="D" unicode="D" horiz-adv-x="588" 
d="M540 392v47q0 62 -10 121q-11 61 -34 102q-33 54 -83 72q-12 5 -15 6q-2 1 -7 1q-4 1 -6 1q-9 4 -24 5l-29 5h-43h-225v-752q77 0 173 2q32 1 59 1q44 1 58 1q46 6 67 16q52 22 79 79q23 45 29 113q5 22 5 46l3 68zM396 353q0 -26 -2 -64q-1 -22 -5 -53q-10 -81 -37 -105
q-13 -13 -45 -18l-17 -4h-21l-35 1l-33 1v532l11 1q45 0 58 -1h3q23 -2 39 -4q24 -5 34 -12q31 -22 43 -94q7 -35 7 -109v-71z" />
    <glyph glyph-name="E" unicode="E" horiz-adv-x="494" 
d="M455 0v127h-252v207h231v119h-231v174h246v125h-385v-752h391z" />
    <glyph glyph-name="F" unicode="F" horiz-adv-x="488" 
d="M457 629v123h-393v-752h139v330h240v121h-240v178h254z" />
    <glyph glyph-name="G" unicode="G" horiz-adv-x="590" 
d="M529 0v410h-230v-121h97q0 -124 -29 -162q-27 -30 -83 -30q-59 0 -80 85q-11 42 -11 139l1 103l2 97l3 39l9 37q11 35 33 48t69 13q44 0 69 -46q19 -34 19 -96h131l-3 57l-6 41q-14 59 -37 89q-32 41 -80 53q-21 7 -32 7l-27 5l-29 3h-26q-36 0 -77 -9q-42 -9 -65 -28
q-50 -43 -72 -97q-11 -28 -15 -48q-3 -12 -5 -34v-2q-1 -11 -1 -35l-3 -53l-1 -122q0 -95 9 -154q15 -94 57 -145q53 -62 131 -62q80 0 117 24q38 24 62 77l11 -83h92z" />
    <glyph glyph-name="H" unicode="H" horiz-adv-x="598" 
d="M533 0v752h-138v-295h-192v295h-139v-752h139v342h192v-342h138z" />
    <glyph glyph-name="I" unicode="I" horiz-adv-x="268" 
d="M203 0v752h-139v-752h139z" />
    <glyph glyph-name="J" unicode="J" horiz-adv-x="441" 
d="M374 201l-1 551h-137l-1 -582l-1 -44l-5 -12l-8 -11q-13 -13 -36 -13q-24 0 -38 24q-8 16 -8 46v7l2 71h-129v-35l-1 -75q0 -51 43 -98q44 -48 102 -48q55 0 83 5q18 3 38 10q3 1 5 2q13 4 17 6q36 19 55 51q10 18 14 33t4 36z" />
    <glyph glyph-name="K" unicode="K" horiz-adv-x="547" 
d="M539 0l-201 439l189 313h-156l-170 -314v314h-137v-752h135v229l53 82l135 -311h152z" />
    <glyph glyph-name="L" unicode="L" horiz-adv-x="488" 
d="M457 0v129h-254v623h-139v-752h393z" />
    <glyph glyph-name="M" unicode="M" horiz-adv-x="756" 
d="M691 0v752h-211l-101 -486l-104 486h-211v-752h133l-2 668l141 -668h86l139 668l-2 -668h132z" />
    <glyph glyph-name="N" unicode="N" horiz-adv-x="596" 
d="M531 0v752h-131l4 -525l-197 525h-143v-752h131l-4 527l198 -527h142z" />
    <glyph glyph-name="O" unicode="O" horiz-adv-x="588" 
d="M538 290v105v6q-2 16 -2 22v25l-1 60v23q0 1 -1 6q-1 14 -4 27l-15 55q-23 60 -56 96q-12 14 -18 18l-3 3q-9 6 -16 11q-19 13 -43 16l-47 6l-88 2q-67 0 -124 -63q-46 -49 -61 -150q-10 -53 -10 -184q0 -123 9 -182q15 -101 63 -149q58 -61 162 -61q103 0 159 41
q54 41 75 109t21 158zM396 292l-2 -53q0 -8 -2 -22q0 -4 -3 -15l-2 -12q-11 -54 -34 -77q-8 -10 -24 -13q-15 -5 -28 -5h-25q-35 0 -61 47q-12 21 -18 46q-6 24 -6 53v98q0 33 2 112v9q1 36 2 56v17q6 55 13 67q16 32 36 46q19 13 62 13q42 0 68 -56q11 -26 17 -53
q5 -33 5 -66v-108v-84z" />
    <glyph glyph-name="P" unicode="P" horiz-adv-x="545" 
d="M516 543q0 109 -50 159t-159 50h-243v-752h139v318h44h39l65 3l28 4l28 10q21 13 47 30q34 28 49 82q13 40 13 96zM377 537q0 -66 -32 -92q-25 -22 -70 -22h-4l-72 1v222l14 1q110 0 138 -23q26 -24 26 -87z" />
    <glyph glyph-name="Q" unicode="Q" horiz-adv-x="588" 
d="M575 -6l-84 82q13 20 19 39l13 40q9 39 9 76l4 82l3 53l1 66q0 46 -9 116q-11 72 -37 123q-35 66 -96 85q-51 15 -133 15t-141 -59q-49 -48 -65 -146q-10 -53 -10 -187q0 -127 9 -183q13 -97 61 -151q59 -63 128 -63q68 0 108 8q36 7 63 18l86 -86zM396 390l-2 -106
l-2 -43l-7 -59l-30 31l-70 -72l41 -41l-16 -2l-37 -3q-22 0 -45 23t-27 61l-8 45l-1 36l-2 85v48v53q0 19 2 53q1 17 5 51q9 50 27 77q11 17 29 25q17 6 57 6q43 0 64 -46q10 -18 13 -41q2 -7 4 -25q1 -9 1 -30l2 -57z" />
    <glyph glyph-name="R" unicode="R" horiz-adv-x="576" 
d="M568 0l-17 22q-9 12 -13 25l-7 27q-2 14 -2 32l-2 96l-4 89q-6 34 -27 59q-20 24 -72 41q52 12 78 50q25 37 25 134q0 98 -63 141q-54 36 -150 36h-250v-752h135v330l15 1h35l45 -2q43 -6 62 -20q22 -14 29 -54q3 -10 3 -30l1 -53q0 -3 1 -12l1 -4v-15v-19l1 -55l2 -32
l8 -35h166zM389 539q0 -58 -28 -82q-28 -25 -64 -25l-65 1l-33 1v212h19l19 1q97 0 122 -22q30 -25 30 -86z" />
    <glyph glyph-name="S" unicode="S" horiz-adv-x="549" 
d="M498 215q0 89 -80 161q-4 5 -147 103q-79 55 -79 97t19 61t51 19q28 0 52 -11q22 -14 28 -38l5 -14q2 -8 2 -23l1 -35v-14h132q0 96 -18 142q-19 47 -71 76q-29 19 -60 25q-25 7 -97 7q-34 0 -65 -14t-59 -42q-56 -56 -56 -116q0 -59 6 -88q5 -29 18 -47q11 -16 27 -34
q13 -14 36 -34l79 -58l79 -55l27 -21q15 -12 20 -26q7 -10 7 -24l1 -44q0 -17 -4 -26l-1 -3q-4 -9 -6 -12q-1 -2 -4 -6l-5 -5q-21 -20 -63 -20q-43 0 -63 18q-20 25 -20 56l-1 66v28h-138l-1 -27v-76q0 -64 56 -122q56 -57 168 -57q114 0 170 59q54 59 54 174z" />
    <glyph glyph-name="T" unicode="T" horiz-adv-x="482" 
d="M473 629v123h-463v-123h162v-629h139v629h162z" />
    <glyph glyph-name="U" unicode="U" horiz-adv-x="599" 
d="M534 232v520h-137q0 -581 -13 -608q-21 -47 -83 -47q-63 0 -84 45q-13 25 -13 102v508h-140l2 -573l4 -46q15 -82 81 -118q59 -33 127 -33q71 0 111 9q57 15 80 40q23 23 36 44q17 27 20 50l4 23l3 27z" />
    <glyph glyph-name="V" unicode="V" horiz-adv-x="547" 
d="M523 752h-146l-102 -600l-113 600h-148l168 -752h183z" />
    <glyph glyph-name="W" unicode="W" horiz-adv-x="818" 
d="M801 752h-145l-80 -580l-107 580h-115l-98 -570l-94 570h-144l146 -752h166l80 475l88 -475h166z" />
    <glyph glyph-name="X" unicode="X" horiz-adv-x="549" 
d="M539 0l-185 385l179 367h-154l-104 -236l-99 236h-158l175 -367l-183 -385h150l111 252l110 -252h158z" />
    <glyph glyph-name="Y" unicode="Y" horiz-adv-x="551" 
d="M541 752h-150l-114 -283l-113 283h-154l195 -434v-318h143v318z" />
    <glyph glyph-name="Z" unicode="Z" horiz-adv-x="484" 
d="M453 0v127h-271l261 510v115h-400v-117h252l-266 -508v-127h424z" />
    <glyph glyph-name="bracketleft" unicode="[" horiz-adv-x="328" 
d="M279 -203v84h-78v789h78v82h-201v-955h201z" />
    <glyph glyph-name="backslash" unicode="\" horiz-adv-x="307" 
d="M326 -92l-281 862h-74l281 -862h74z" />
    <glyph glyph-name="bracketright" unicode="]" horiz-adv-x="328" 
d="M237 -203v955h-200v-82h80v-789h-80v-84h200z" />
    <glyph glyph-name="asciicircum" unicode="^" horiz-adv-x="1000" 
d="M797 439l-236 274h-123l-235 -274h115l182 180l182 -180h115z" />
    <glyph glyph-name="underscore" unicode="_" 
d="M500 -234v99h-500v-99h500z" />
    <glyph glyph-name="grave" unicode="`" 
d="M318 625l-84 139h-125l149 -139h60z" />
    <glyph glyph-name="a" unicode="a" horiz-adv-x="484" 
d="M451 0q-19 37 -19 80q0 421 -43 461q-43 39 -143 39q-97 0 -146 -44t-49 -136v-4h127l4 37l9 26q17 27 47 27q32 0 50 -12q17 -14 17 -49q0 -36 -68 -68q-114 -54 -126 -63q-67 -49 -67 -132q0 -82 35 -129q35 -48 88 -48q54 0 88 19q33 19 56 51l3 -28l10 -27h127z
M308 232q0 -51 -11 -90q-18 -56 -53 -56t-50 19q-15 20 -15 53t19 61q20 28 49 45l60 33l1 -6v-7v-52z" />
    <glyph glyph-name="b" unicode="b" horiz-adv-x="486" 
d="M445 279l-3 99q0 38 -4 55q-4 16 -4 17q-4 15 -4 17q-2 9 -8 27q-21 58 -56 72l-35 11q-13 4 -42 4q-26 0 -56 -18t-45 -45v234h-131v-752h125v60q36 -75 110 -75q77 0 111 52q30 45 36 104t6 138zM314 295l-1 -33v-27v-31q0 -109 -45 -109q-39 0 -56 9q-15 12 -18 25
l-5 27l-2 23l-3 67q0 137 8 171q15 54 57 54q44 0 57 -51q8 -30 8 -83v-42z" />
    <glyph glyph-name="c" unicode="c" horiz-adv-x="453" 
d="M412 223h-123l1 -15v-32q0 -9 -2 -25l-3 -18l-2 -10q-6 -29 -18 -32l-20 -5l-29 -2q-21 0 -33 39q-7 18 -7 66q0 235 8 259q13 31 49 31t48 -40q6 -22 6 -70h125q0 106 -37 155q-44 56 -135 56q-92 0 -137 -39q-40 -34 -52 -94q-12 -58 -12 -100l1 -65l1 -34l4 -81
q4 -40 15 -70q16 -40 41 -71q19 -24 53 -32t94 -8q59 0 100 29q40 31 52 82t12 126z" />
    <glyph glyph-name="d" unicode="d" horiz-adv-x="486" 
d="M431 0v752h-132v-234q-19 33 -47 46q-28 16 -80 16t-88 -48q-29 -40 -38 -109q-2 -15 -4 -43v-3q-1 -15 -1 -46v-83l2 -48q0 -3 6 -45q3 -23 7 -44l1 -9q13 -53 40 -82q32 -35 102 -35t107 75v-60h125zM304 271l-2 -66l-2 -30l-5 -33q-9 -47 -45 -47q-35 0 -49 9
q-11 11 -16 35q-7 27 -9 44q-2 22 -2 37l-1 106q0 70 10 99q18 44 54 44q38 0 53 -43q7 -16 9 -31q1 -9 5 -31v-25v-68z" />
    <glyph glyph-name="e" unicode="e" horiz-adv-x="478" 
d="M435 264q0 75 -1 95q-1 29 -3 48l-11 53q-7 24 -18 42q-26 47 -72 65q-22 8 -44 11l-78 2q-52 0 -99 -35q-39 -31 -55 -90q-12 -49 -12 -149l1 -87l3 -51q10 -85 47 -128q48 -54 149 -54t147 52q42 48 42 155h-123q0 -44 -13 -71q-16 -39 -56 -39q-39 0 -56 48
q-5 17 -7 30q-1 6 -1 29l1 46l1 28h258zM304 354h-128v19v37q0 30 18 52q17 18 50 18q35 0 50 -33q10 -20 10 -70v-23z" />
    <glyph glyph-name="f" unicode="f" horiz-adv-x="275" 
d="M254 469v95h-55q0 64 9 77q7 13 46 13v98l-28 1l-53 1q-40 0 -68 -22q-27 -21 -32 -53q-5 -33 -5 -87v-28h-50v-95h50v-469h131v469h55z" />
    <glyph glyph-name="g" unicode="g" horiz-adv-x="486" 
d="M431 28v536h-125v-58q-18 36 -47 55t-83 19q-53 0 -90 -46q-31 -37 -40 -108q-2 -16 -4 -53q-1 -21 -1 -70l1 -103q0 -28 1 -35q0 -3 1 -5q1 -14 3 -24l14 -53q21 -61 59 -84q8 -7 15 -8q2 0 3 -1q8 -2 16 -3q18 -2 42 -2q30 0 58 16q27 15 45 48l2 -10v-40q0 -34 -7 -54
q-15 -42 -48 -42q-35 0 -46 9q-12 7 -15 27h-131q0 -35 15 -60q13 -25 41 -42q43 -26 105 -26q27 0 57 2q23 1 41 6q53 13 72 40q29 41 38 79q8 40 8 90zM304 217q0 -46 -12 -76q-18 -45 -56 -45q-40 0 -55 47q-5 17 -7 29q-1 7 -1 31l1 55l1 44l1 61l4 43l9 35q6 18 17 24
q3 1 5 2q9 4 13 5q5 1 28 1q33 0 45 -52q7 -21 7 -84v-120z" />
    <glyph glyph-name="h" unicode="h" horiz-adv-x="484" 
d="M430 0q0 501 -33 541q-34 40 -82 40q-45 0 -77 -18t-50 -51v240h-131v-752h131q0 410 9 432q13 37 52 37q40 0 49 -31q7 -17 7 -59v-379h125z" />
    <glyph glyph-name="i" unicode="i" horiz-adv-x="242" 
d="M186 635v117h-129v-117h129zM186 0v564h-129v-564h129z" />
    <glyph glyph-name="j" unicode="j" horiz-adv-x="252" 
d="M193 637v115h-129v-115h129zM193 -60v624h-127q0 -621 -8 -632q-9 -12 -40 -12v-108l74 -1h4q45 0 71 29t26 100z" />
    <glyph glyph-name="k" unicode="k" horiz-adv-x="432" 
d="M439 0l-142 350l141 214h-137l-117 -205v393h-127v-752h127v176l33 51l82 -227h140z" />
    <glyph glyph-name="l" unicode="l" horiz-adv-x="242" 
d="M186 0v752h-129v-752h129z" />
    <glyph glyph-name="m" unicode="m" horiz-adv-x="752" 
d="M697 0q0 79 -4 214t-4 174q0 55 -8 101q-7 40 -16 52q-34 40 -90 40q-55 0 -84 -18q-31 -17 -59 -54q-13 33 -46 53q-31 18 -78 18q-44 0 -73 -17q-30 -17 -55 -63v64h-121v-564h129q0 429 18 448q17 18 50 18q36 0 48 -33q9 -24 9 -66v-367h128q0 412 9 433q17 33 56 33
q42 0 55 -34q7 -17 7 -72v-360h129z" />
    <glyph glyph-name="n" unicode="n" horiz-adv-x="484" 
d="M430 0q0 503 -33 542q-34 39 -82 39q-47 0 -79 -21q-33 -22 -50 -52v56h-129v-564h131q0 401 8 430q12 39 48 39q37 0 50 -30q11 -24 11 -60v-379h125z" />
    <glyph glyph-name="o" unicode="o" horiz-adv-x="479" 
d="M439 296q0 90 -12 142q-15 70 -57 103q-48 39 -135 39q-86 0 -133 -45q-39 -38 -53 -112q-10 -47 -10 -145q0 -91 9 -141q15 -72 54 -108q46 -43 138 -43q93 0 139 45q39 38 53 115q7 36 7 150zM305 281l-1 -45q0 -108 -18 -129t-56 -21q-39 0 -51 51q-4 13 -4 72l-3 92
l-1 80q0 51 21 75q20 23 59 23t50 -62q4 -13 4 -61v-13v-17v-45z" />
    <glyph glyph-name="p" unicode="p" horiz-adv-x="486" 
d="M445 252l-2 136q-9 88 -36 133q-37 61 -93 61q-28 0 -50 -5q-21 -4 -36 -15q-30 -20 -46 -56v58h-125v-753h131v238q23 -36 48 -50q23 -14 45 -14h28l9 1q30 0 50 13q22 14 38 39q26 38 33 91q6 54 6 123zM314 227q0 -49 -9 -81q-17 -50 -43 -50q-27 0 -42 9
q-15 7 -20 22q-9 28 -12 53l-4 33v27q0 169 16 201q17 32 51 32q38 0 52 -44q7 -18 7 -29q2 -10 2 -14v-11l1 -59l1 -47v-42z" />
    <glyph glyph-name="q" unicode="q" horiz-adv-x="486" 
d="M431 -189v753h-125v-58q-18 36 -47 55t-83 19q-53 0 -90 -46q-31 -37 -40 -108q-2 -16 -4 -53q-1 -21 -1 -70l1 -103l4 -63q1 -9 6 -24q0 -2 3 -12q3 -13 5 -18q21 -60 60 -84q8 -7 15 -8q6 -2 15 -3l44 -3q30 0 58 15q34 20 47 49v-238h132zM304 217q0 -46 -12 -76
q-18 -45 -56 -45q-40 0 -55 47q-5 17 -7 29q-1 7 -1 31l1 55l1 44l1 61l4 43l9 35q6 18 17 24q3 1 5 2q9 4 13 5q5 1 28 1q33 0 45 -52q7 -21 7 -84v-120z" />
    <glyph glyph-name="r" unicode="r" horiz-adv-x="338" 
d="M314 422v158q-51 -6 -80 -32q-27 -24 -50 -75v91h-125v-564h132q0 386 36 408q25 14 70 14h17z" />
    <glyph glyph-name="s" unicode="s" horiz-adv-x="439" 
d="M402 145q0 26 -4 42q-4 15 -11 29l-6 12l-2 3l-17 18l-21 23q-24 24 -42 35l-100 66q-39 33 -39 55q0 26 13 40q15 15 48 15q35 0 48 -27q10 -16 10 -63h116q0 93 -41 142q-42 47 -128 47t-135 -40q-51 -40 -51 -116q0 -75 62 -134l113 -81q62 -41 62 -72q0 -32 -17 -44
q-17 -13 -51 -13q-33 0 -47 35q-8 21 -8 71h-117q0 -110 43 -156q43 -47 132 -47q87 0 139 41q51 41 51 119z" />
    <glyph glyph-name="t" unicode="t" horiz-adv-x="271" 
d="M248 0l-5 88l-1 14l-21 -1q-16 2 -24 20q-3 9 -3 45l1 303h53v95h-53v155h-131v-155h-50v-95h50q0 -418 22 -446q24 -27 65 -27l59 2z" />
    <glyph glyph-name="u" unicode="u" horiz-adv-x="484" 
d="M428 0v564h-131q0 -402 -8 -429q-15 -37 -50 -37q-36 0 -50 32q-7 17 -7 65v369h-127q0 -504 34 -541q33 -38 81 -38q50 0 81 19q29 20 50 53v-57h127z" />
    <glyph glyph-name="v" unicode="v" horiz-adv-x="443" 
d="M432 564h-135l-72 -431l-75 431h-138l131 -564h160z" />
    <glyph glyph-name="w" unicode="w" horiz-adv-x="654" 
d="M641 564h-129l-55 -423l-76 423h-108l-62 -418l-61 418h-136l121 -564h142l51 336l65 -336h138z" />
    <glyph glyph-name="x" unicode="x" horiz-adv-x="438" 
d="M430 0l-143 289l141 275h-145l-60 -140l-61 140h-148l142 -275l-148 -289h146l67 150l64 -150h145z" />
    <glyph glyph-name="y" unicode="y" horiz-adv-x="443" 
d="M434 564h-131l-76 -408l-79 408h-138l144 -582l5 -17l1 -24q0 -17 -27 -24q-7 -4 -30 -4l-17 1v-98l21 -3l55 -1q45 0 79 33q28 28 46 102z" />
    <glyph glyph-name="z" unicode="z" horiz-adv-x="383" 
d="M361 0v111h-199l197 360v93h-336v-109h190l-192 -351v-104h340z" />
    <glyph glyph-name="braceleft" unicode="{" 
d="M432 -201v101l-40 2q-18 0 -22 1t-10 3q-37 18 -37 87l1 132q0 74 -37 105q-16 13 -31 19q-15 8 -33 11q61 13 83 49q18 30 18 95q0 63 2 121q1 41 5 55q9 26 34 33q1 0 5 1q5 2 10 3h3q9 2 13 2h17h19v102l-29 1h-55q-37 0 -78 -18q-56 -24 -62 -81l-2 -32l-1 -36
q0 -147 -6 -176q-7 -28 -22 -43q-16 -16 -47 -22l-54 -3v-104h6q66 0 95 -24q28 -25 28 -97l1 -166l2 -23q9 -59 66 -83q36 -16 87 -16z" />
    <glyph glyph-name="bar" unicode="|" 
d="M301 -234v998h-101v-998h101z" />
    <glyph glyph-name="braceright" unicode="}" 
d="M424 207v104h-6q-69 0 -96 24q-27 26 -27 97q0 167 -5 200q-12 45 -41 62q-16 10 -40 19q-19 6 -37 6l-55 3h-39l-8 -1v-102h12l41 -3q36 -7 42 -24q13 -27 13 -69q0 -185 18 -214q22 -37 81 -49q-59 -15 -79 -47q-20 -34 -20 -100q0 -151 -7 -171q-10 -30 -34 -36
l-17 -3q-6 -2 -14 -2l-36 -1v-101q58 0 91 4q40 5 70 12q41 12 56 61q8 30 8 89q0 193 28 218q27 24 101 24z" />
    <glyph glyph-name="asciitilde" unicode="~" horiz-adv-x="1000" 
d="M800 688h-99l-4 -49l-10 -35q-21 -42 -59 -42q-40 0 -78 32l-72 61q-25 17 -56 25q-27 7 -69 7q-77 0 -121 -68q-36 -57 -36 -148v-6h98v6q0 52 15 79q19 40 61 40q40 0 78 -32l71 -61q49 -32 124 -32q77 0 120 66q37 55 37 157z" />
    <glyph glyph-name="quotesinglbase" unicode="&#x201a;" horiz-adv-x="443" 
d="M373 -6v135h-121v-129h62q0 -37 -14 -57q-14 -25 -48 -29v-49q55 12 85 42q36 36 36 87zM180 -6v135h-121v-129h62q0 -35 -15 -59t-47 -27v-49q55 12 88 45t33 84z" />
    <glyph glyph-name="florin" unicode="&#x192;" 
d="M467 738q-23 10 -40 13q-25 5 -69 5q-45 0 -87 -42q-34 -33 -54 -99q-9 -33 -24 -119h-127v-96h116l-67 -388q-9 -41 -16 -55q-18 -30 -36 -30l-30 2l-23 7l-14 -112l44 -9q21 -3 60 -3q40 0 80 42q30 31 53 96q16 44 25 111l55 339h121v96h-112q1 5 1 6q3 12 4 18
q2 9 3 30l9 42q21 60 47 60q19 0 24 -1l15 -3l22 -9z" />
    <glyph glyph-name="quotedblbase" unicode="&#x201e;" horiz-adv-x="443" 
d="M373 -6v135h-121v-129h62q0 -37 -14 -57q-14 -25 -48 -29v-49q55 12 85 42q36 36 36 87zM180 -6v135h-121v-129h62q0 -35 -15 -59t-47 -27v-49q55 12 88 45t33 84z" />
    <glyph glyph-name="ellipsis" unicode="&#x2026;" horiz-adv-x="1000" 
d="M895 0v135h-125v-135h125zM561 0v135h-125v-135h125zM229 0v135h-125v-135h125z" />
    <glyph glyph-name="dagger" unicode="&#x2020;" 
d="M461 434v119h-148v199h-127v-199h-149v-119h149v-520h127v520h148z" />
    <glyph glyph-name="daggerdbl" unicode="&#x2021;" 
d="M457 108v112h-144v229h144v114h-144v189h-127v-189h-143v-114h143v-229h-143v-113h143v-189h127v189z" />
    <glyph glyph-name="circumflex" unicode="&#x2c6;" 
d="M385 625l-84 139h-102l-83 -139h60l74 72l74 -72h61z" />
    <glyph glyph-name="perthousand" unicode="&#x2030;" horiz-adv-x="1127" 
d="M1084 174q0 45 -7 74q-7 32 -21 54q-36 57 -111 57q-103 0 -141 -50q-31 -40 -31 -133q0 -91 30 -135q39 -55 122 -55q85 0 125 54q34 46 34 134zM984 172q0 -20 -2 -42q-1 -16 -5 -29q-13 -40 -51 -40q-41 0 -50 40q-5 18 -5 70q0 49 8 76q15 36 51 36t48 -42
q6 -24 6 -69zM354 570q0 94 -31 137q-37 51 -124 51t-123 -50q-31 -40 -31 -132q0 -90 29 -137q38 -56 121 -56q85 0 124 53q35 47 35 134zM256 568q0 -19 -2 -41q-1 -16 -6 -30q-15 -38 -49 -38q-35 0 -49 29q-7 14 -7 58q0 50 3 72q4 18 6 26q2 7 3 9q1 6 2 8q6 14 18 18
q11 3 38 3q25 0 37 -43q6 -24 6 -71zM594 758h-74l-344 -772h72zM727 174q0 81 -29 128q-36 57 -110 57q-105 0 -141 -50q-31 -43 -31 -133q0 -91 30 -135q37 -55 122 -55q86 0 125 53q34 43 34 135zM629 172q0 -45 -8 -72q-15 -39 -51 -39q-38 0 -49 41q-5 22 -5 69
q0 23 2 45q2 17 6 29q15 38 50 38q37 0 49 -41q6 -24 6 -70z" />
    <glyph glyph-name="Scaron" unicode="&#x160;" horiz-adv-x="549" 
d="M399 971h-60l-74 -72l-75 72h-60l84 -139h101zM498 215q0 89 -80 161q-4 5 -147 103q-79 55 -79 97t19 61t51 19q28 0 52 -11q22 -14 28 -38l5 -14q2 -8 2 -23l1 -35v-14h132q0 96 -18 142q-19 47 -71 76q-29 19 -60 25q-25 7 -97 7q-34 0 -65 -14t-59 -42
q-56 -56 -56 -116q0 -59 6 -88q5 -29 18 -47q11 -16 27 -34q13 -14 36 -34l79 -58l79 -55l27 -21q15 -12 20 -26q7 -10 7 -24l1 -44q0 -17 -4 -26l-1 -3q-4 -9 -6 -12q-1 -2 -4 -6l-5 -5q-21 -20 -63 -20q-43 0 -63 18q-20 25 -20 56l-1 66v28h-138l-1 -27v-76
q0 -64 56 -122q56 -57 168 -57q114 0 170 59q54 59 54 174z" />
    <glyph glyph-name="guilsinglleft" unicode="&#x2039;" horiz-adv-x="287" 
d="M221 94v107l-94 82l94 80v108l-155 -139v-100z" />
    <glyph glyph-name="OE" unicode="&#x152;" horiz-adv-x="814" 
d="M777 0v127h-252v209h231v115h-231v176h246v125h-371v-55q-20 39 -50 56q-32 17 -92 17t-110 -35q-43 -30 -64 -85q-21 -52 -29 -133l-2 -37v-39l-2 -49l-1 -87q0 -61 12 -126q16 -90 61 -138q52 -58 123 -58q67 0 102 17q34 19 52 56v-56h377zM391 201q0 -47 -23 -76
q-24 -29 -73 -29t-75 48q-11 23 -17 45t-9 55l-3 64l-1 67v61l2 68q0 12 2 30q1 6 4 23l1 5q9 28 19 47q29 48 74 48q49 0 73 -27q26 -26 26 -67v-362z" />
    <glyph glyph-name="quoteleft" unicode="&#x2018;" horiz-adv-x="250" 
d="M180 508v127h-63q0 35 15 59q15 23 48 29v47q-56 -12 -85 -41q-36 -36 -36 -86v-135h121z" />
    <glyph glyph-name="quoteright" unicode="&#x2019;" horiz-adv-x="250" 
d="M180 617v135h-121v-127h62q0 -36 -15 -60q-15 -23 -47 -28v-47q54 10 88 44q33 32 33 83z" />
    <glyph glyph-name="quotedblleft" unicode="&#x201c;" horiz-adv-x="442" 
d="M373 723v47q-53 -8 -86 -41q-35 -35 -35 -86v-135h119v127h-60q0 37 14 60q13 22 48 28zM180 508v127h-63v4q0 31 15 55q15 23 48 29v47q-56 -12 -85 -41q-36 -36 -36 -86v-135h121z" />
    <glyph glyph-name="quotedblright" unicode="&#x201d;" horiz-adv-x="443" 
d="M373 617v135h-121v-127h62q0 -34 -14 -57q-18 -28 -48 -31v-47q54 11 87 44q34 33 34 83zM180 617v135h-121v-127h62q0 -36 -15 -60q-15 -23 -47 -28v-47q54 10 88 44q33 32 33 83z" />
    <glyph glyph-name="bullet" unicode="&#x2022;" horiz-adv-x="250" 
d="M204 375q0 29 -26 52q-26 22 -57 22q-32 0 -53 -24t-21 -55q0 -34 25 -55q26 -21 56 -21q32 0 53 24q23 25 23 57z" />
    <glyph glyph-name="endash" unicode="&#x2013;" horiz-adv-x="1000" 
d="M1000 242l-2 80h-998l2 -80h998z" />
    <glyph glyph-name="emdash" unicode="&#x2014;" 
d="M500 242v80h-500v-80h500z" />
    <glyph glyph-name="tilde" unicode="&#x2dc;" 
d="M387 758h-43q-6 -20 -13 -27q-10 -10 -26 -10q-16 2 -23 4q-5 1 -19 4q-4 1 -10 3q-36 12 -62 12q-30 0 -52 -39q-16 -25 -26 -74h43q6 19 16 26q10 8 23 8l21 -3l29 -8q21 -8 34 -9q18 -2 30 -2q28 0 53 40q15 25 25 75z" />
    <glyph glyph-name="trademark" unicode="&#x2122;" horiz-adv-x="832" 
d="M705 447v268h-96l-58 -162l-63 162h-95v-268h64v199l78 -199h29l77 199v-199h64zM338 660v55h-236v-55h82v-213h72v213h82z" />
    <glyph glyph-name="scaron" unicode="&#x161;" horiz-adv-x="439" 
d="M354 786h-60l-74 -72l-74 72h-61l84 -140h102zM402 145q0 26 -4 42q-4 15 -11 29l-6 12l-2 3l-17 18l-21 23q-24 24 -42 35l-100 66q-39 33 -39 55q0 26 13 40q15 15 48 15q35 0 48 -27q10 -16 10 -63h116q0 93 -41 142q-42 47 -128 47t-135 -40q-51 -40 -51 -116
q0 -75 62 -134l113 -81q62 -41 62 -72q0 -32 -17 -44q-17 -13 -51 -13q-33 0 -47 35q-8 21 -8 71h-117q0 -110 43 -156q43 -47 132 -47q87 0 139 41q51 41 51 119z" />
    <glyph glyph-name="guilsinglright" unicode="&#x203a;" horiz-adv-x="287" 
d="M221 232v100l-155 139v-108l94 -82l-94 -80v-107z" />
    <glyph glyph-name="oe" unicode="&#x153;" horiz-adv-x="695" 
d="M658 348q0 107 -34 162q-42 70 -111 70q-68 0 -102 -16q-33 -16 -57 -46q-34 37 -62 49q-30 13 -71 13q-38 0 -62 -7q-25 -7 -53 -25q-45 -30 -57 -114q-2 -12 -4 -39q-1 -16 -1 -54l-1 -77l-1 -57q0 -43 10 -99q12 -54 49 -88q38 -36 98 -36q61 0 94 13q36 14 62 46
q22 -31 55 -45t105 -14t109 58q30 47 30 151h-118l-3 -42l-5 -30q-13 -39 -46 -39q-35 0 -47 23q-13 22 -13 55v102h234l1 50zM536 378l-1 -13l-1 -11h-112l-1 19l-1 27q0 25 10 46q15 33 47 33q31 0 47 -25q12 -21 12 -56v-20zM296 200q0 -49 -10 -76q-16 -42 -64 -42
q-53 0 -53 112v55v37l-1 73v9q0 17 2 37q2 15 6 28q13 46 51 46q35 0 52 -17q15 -18 15 -82l2 -138v-42z" />
    <glyph glyph-name="Ydieresis" unicode="&#x178;" horiz-adv-x="551" 
d="M541 752h-150l-114 -283l-113 283h-154l195 -434v-318h143v318z" />
    <glyph glyph-name="exclamdown" unicode="&#xa1;" horiz-adv-x="293" 
d="M209 617v135h-129v-135h129zM213 0l-1 212l-3 89l-4 48l-17 208h-84l-18 -208l-4 -40l-4 -40v-25v-244h135z" />
    <glyph glyph-name="cent" unicode="&#xa2;" 
d="M424 381q0 23 -2 55q-1 19 -5 40q-12 50 -35 75q-32 35 -85 41v135h-89v-135l-9 -2q-30 -6 -36 -9q-26 -11 -38 -26q-28 -32 -41 -77l-9 -37l-3 -34l-2 -115q0 -80 3 -112q9 -76 33 -117q36 -54 102 -63v-158h89v158q56 0 87 43q26 34 32 84t6 107h-123v-7v-12l1 -41
q0 -27 -7 -45q-12 -27 -44 -27q-35 0 -44 43q-3 18 -3 75l2 120l-2 66q0 84 44 84q41 0 51 -42q5 -20 5 -37l-3 -30h125z" />
    <glyph glyph-name="sterling" unicode="&#xa3;" 
d="M482 23l-29 110l-22 -12l-23 -10q-24 -8 -41 -8q-11 0 -74 11l-15 3q-3 1 -5 1q-6 1 -11 1h-14q-8 0 -22 -2q-7 -1 -25 -5l-51 -20l45 41l7 7l12 15q6 8 12 17q32 50 32 80l-2 45l-2 21h117v72h-141q-22 32 -34 78q-5 14 -8 29q-1 3 -1 8t-1 8l-3 42q0 42 17 68
q23 32 68 32q46 0 64 -44q10 -23 10 -86h123l-2 69l-2 20l-5 25q-13 57 -72 90q-49 28 -136 28q-84 0 -140 -57t-56 -127q0 -68 13 -108q14 -42 33 -75h-63v-72h94l5 -36l2 -32q0 -16 -6 -37l-8 -31l-5 -12q-12 -25 -33 -48q-22 -23 -49 -42l37 -94q20 10 29 14q6 2 7 2
l18 6q27 8 56 8q27 0 86 -13q64 -14 96 -14q31 0 62 9l30 11z" />
    <glyph glyph-name="currency" unicode="&#xa4;" horiz-adv-x="605" 
d="M574 215l-99 99q14 22 26 57q10 30 10 78t-36 102l99 99l-51 51l-99 -97q-58 36 -121 36t-119 -36l-100 97l-51 -51l100 -99q-38 -53 -38 -100q0 -45 11 -78q11 -34 27 -59l-100 -99l51 -53l100 100q52 -37 119 -37q66 0 121 37l99 -100zM438 420q0 -49 -43 -85t-93 -36
q-52 0 -92 40q-41 41 -41 94q0 52 41 93q40 40 90 40q49 0 87 -29t47 -71l4 -20v-26z" />
    <glyph glyph-name="yen" unicode="&#xa5;" horiz-adv-x="557" 
d="M539 742h-135l-123 -290l-127 290h-138l107 -226h-100v-72h133l32 -67h-165v-70h192v-307h131v307h187v70h-162l31 67h131v72h-99z" />
    <glyph glyph-name="brokenbar" unicode="&#xa6;" 
d="M301 328v371h-101v-371h101zM301 -170v369h-101v-369h101z" />
    <glyph glyph-name="section" unicode="&#xa7;" 
d="M462 316q0 72 -68 131l-127 85q-69 48 -69 81q0 35 15 47q18 12 47 12q32 0 44 -18t12 -54h122q0 91 -47 132q-46 39 -127 39q-82 0 -136 -39t-54 -96q0 -54 13 -86q15 -33 44 -56q-49 -15 -71 -46q-23 -32 -23 -79q0 -48 28 -85l26 -29l40 -32l121 -92l39 -32
q20 -21 20 -46t-17 -39q-18 -15 -51 -15t-47 20t-14 49v12h-123q0 -102 45 -142q44 -42 113 -42q67 0 103 10l34 13l36 21q26 19 35 49q9 32 9 72q0 38 -16 74t-49 58q50 17 71 47q22 31 22 76zM347 297l-3 -16l-8 -15q-9 -12 -25 -22l-14 10l-13 9l-49 33q-37 24 -55 45
q-12 12 -19 26q-7 10 -7 20q0 18 11 32q13 13 28 22l110 -80q21 -15 30 -28q14 -19 14 -36z" />
    <glyph glyph-name="dieresis" unicode="&#xa8;" 
d="M387 637v115h-108v-115h108zM221 637v115h-108v-115h108z" />
    <glyph glyph-name="copyright" unicode="&#xa9;" horiz-adv-x="832" 
d="M779 357q0 153 -106 259q-107 107 -256 107t-256 -108t-107 -256q0 -146 107 -255q107 -108 256 -108q150 0 256 106q106 105 106 255zM722 357q0 -123 -91 -211q-90 -89 -214 -89q-122 0 -213 88q-92 89 -92 213t92 214t214 90q125 0 214 -91q90 -91 90 -214zM598 291
h-94q-7 -37 -28 -58q-23 -20 -66 -20q-45 0 -70 49q-20 39 -20 95q0 57 21 100q27 54 68 54q42 0 63 -21q24 -21 28 -52h92q-9 66 -57 104q-49 36 -125 36q-79 0 -136 -66q-52 -61 -52 -155t49 -152q55 -64 137 -64q83 0 132 39q32 24 44 50q14 30 14 61z" />
    <glyph glyph-name="ordfeminine" unicode="&#xaa;" horiz-adv-x="363" 
d="M338 357q-14 30 -14 57q0 297 -36 325q-31 25 -104 25q-71 0 -108 -31q-39 -31 -39 -98h96q0 30 12 46q10 16 34 16q23 0 37 -8q13 -7 13 -35q0 -27 -50 -48l-94 -43q-51 -37 -51 -95q0 -61 25 -89q25 -31 66 -31q38 0 65 11q24 13 42 37l3 -17l7 -22h96zM231 519
q0 -35 -8 -64q-14 -38 -38 -38q-27 0 -39 14q-12 17 -12 43q0 27 33 55q22 21 63 35l1 -9v-36z" />
    <glyph glyph-name="guillemotleft" unicode="&#xab;" horiz-adv-x="482" 
d="M416 94v107l-94 82l94 80v108l-152 -139v-100zM221 94v107l-94 82l94 80v108l-155 -139v-100z" />
    <glyph glyph-name="logicalnot" unicode="&#xac;" horiz-adv-x="832" 
d="M709 178v244h-586v-96h490v-148h96z" />
    <glyph glyph-name="registered" unicode="&#xae;" horiz-adv-x="832" 
d="M779 357q0 153 -106 259q-107 107 -256 107t-256 -108t-107 -256q0 -146 107 -255q107 -108 256 -108q150 0 256 106q106 105 106 255zM722 355q0 -122 -92 -210q-91 -88 -213 -88q-120 0 -212 89q-93 89 -93 211q0 123 92 215q92 90 214 90q124 0 214 -92
q90 -93 90 -215zM598 164l-90 180q39 11 65 40q24 30 24 82q0 54 -58 81q-38 19 -115 19h-158v-402h97v164h49l76 -164h110zM494 447q0 -28 -20 -43q-21 -15 -73 -15h-38v117q75 0 103 -12t28 -47z" />
    <glyph glyph-name="macron" unicode="&#xaf;" 
d="M500 664v100h-500v-100h500z" />
    <glyph glyph-name="degree" unicode="&#xb0;" horiz-adv-x="400" 
d="M333 593q0 55 -40 95t-95 40q-56 0 -96 -40t-40 -95q0 -56 40 -96t96 -40q54 0 95 41q40 40 40 95zM280 593q0 -34 -24 -58q-23 -25 -57 -25q-33 0 -58 26q-25 25 -25 57q0 35 25 58q26 24 57 24q32 0 57 -25t25 -57z" />
    <glyph glyph-name="plusminus" unicode="&#xb1;" horiz-adv-x="832" 
d="M709 342v96h-243v160h-99v-160h-244v-96h244l-1 -160h100v160h243zM709 0v96h-586v-96h586z" />
    <glyph glyph-name="twosuperior" unicode="&#xb2;" horiz-adv-x="330" 
d="M302 625q0 65 -38 97q-34 28 -106 28t-102 -38q-25 -31 -25 -106v-6h86v12l-1 23q1 16 13 36q11 17 34 17q25 0 38 -18q10 -13 10 -49q0 -35 -48 -80q-74 -69 -88 -90q-48 -67 -48 -154h270v73h-176q19 42 67 87q22 20 42 40q2 2 8 7q23 22 27 27q37 43 37 94z" />
    <glyph glyph-name="threesuperior" unicode="&#xb3;" horiz-adv-x="330" 
d="M304 427q0 42 -15 70q-19 36 -55 42q29 9 44 35q15 29 15 70q0 44 -37 75t-87 31q-46 0 -86 -19q-41 -20 -47 -55l-4 -30l-1 -21v-10h86q0 35 6 51q12 23 37 23q27 0 36 -17q9 -18 9 -50q0 -33 -24 -47q-18 -9 -62 -9v-58q58 0 73 -9q21 -15 21 -63q0 -50 -13 -66
q-14 -17 -43 -17t-40 33q-3 11 -3 26q-1 10 -1 35h-86l-1 -13v-75q0 -71 101 -71q103 0 140 37q37 36 37 102z" />
    <glyph glyph-name="acute" unicode="&#xb4;" 
d="M391 764h-125l-84 -139h60z" />
    <glyph glyph-name="mu" unicode="&#xb5;" horiz-adv-x="609" 
d="M578 533h-140l-45 -252l-18 -80q-13 -42 -37 -70q-29 -31 -71 -31q-43 0 -61 28q-18 27 -18 64v22l5 47l10 59l37 213h-140l-129 -746h138l43 256q19 -28 45 -43q14 -8 28 -11t31 -3q36 0 61 19q25 17 44 52l-7 -57h130z" />
    <glyph glyph-name="paragraph" unicode="&#xb6;" 
d="M480 668v55q-348 0 -403 -46q-57 -46 -57 -112t31 -112q30 -46 81 -58l32 -7l35 -5v-383h74v668h79v-668h74v668h54z" />
    <glyph glyph-name="periodcentered" unicode="&#xb7;" horiz-adv-x="590" 
d="M438 370q0 60 -43 103q-43 42 -102 42q-61 0 -101 -40q-41 -41 -41 -100q0 -60 41 -104q40 -43 102 -43q58 0 102 41q42 44 42 101z" />
    <glyph glyph-name="periodcentered" unicode="&#x2219;" horiz-adv-x="590" 
d="M438 370q0 60 -43 103q-43 42 -102 42q-61 0 -101 -40q-41 -41 -41 -100q0 -60 41 -104q40 -43 102 -43q58 0 102 41q42 44 42 101z" />
    <glyph glyph-name="cedilla" unicode="&#xb8;" 
d="M372 -132q0 45 -29 68q-22 19 -70 25v39h-56v-104l39 -3q23 -8 23 -26q0 -19 -16 -29q-14 -6 -31 -6l-39 3l-60 11v-69l58 -9q12 -2 36 -4q12 -1 35 -1q42 0 73 25q37 30 37 80z" />
    <glyph glyph-name="onesuperior" unicode="&#xb9;" horiz-adv-x="330" 
d="M225 297v453h-61q-9 -43 -51 -66q-36 -18 -84 -18v-53h108v-316h88z" />
    <glyph glyph-name="ordmasculine" unicode="&#xba;" horiz-adv-x="358" 
d="M329 570q0 47 -7 79q-8 36 -16 51q-19 37 -58 52l-14 6l-13 3l-18 3h-50q-38 0 -73 -29q-34 -28 -43 -71t-9 -109q0 -33 3 -62q3 -33 7 -49q10 -42 42 -69q35 -27 101 -27q68 0 102 31q30 27 39 80q7 29 7 111zM229 538l-1 -53q0 -25 -9 -43q-12 -26 -42 -26t-41 33
l-4 26v3q-2 15 -2 21v22l-1 94v6q0 30 10 46q15 24 46 24q32 0 41 -43q3 -15 3 -54v-12v-44z" />
    <glyph glyph-name="guillemotright" unicode="&#xbb;" horiz-adv-x="482" 
d="M416 232v100l-152 139v-108l93 -80l-93 -82v-107zM221 232v100l-155 139v-108l94 -80l-94 -82v-107z" />
    <glyph glyph-name="onequarter" unicode="&#xbc;" horiz-adv-x="797" 
d="M771 84v62h-39v268h-89l-141 -264v-66h150v-84h80v84h39zM654 145h-90l90 169v-169zM646 758h-74l-424 -772h75zM215 326v424h-59q-9 -43 -49 -62q-30 -16 -80 -16v-49h104v-297h84z" />
    <glyph glyph-name="onehalf" unicode="&#xbd;" horiz-adv-x="797" 
d="M771 312q0 58 -41 87q-34 25 -100 25t-93 -33q-27 -34 -27 -104v-6h82l-1 12v22q1 14 10 33q12 18 34 18q23 0 36 -16q11 -17 11 -47q0 -33 -45 -75q-74 -68 -84 -82q-45 -61 -45 -146h256v66h-166q16 39 62 82l51 49l23 24q37 43 37 91zM646 758h-74l-424 -772h75z
M215 326v424h-59q-9 -43 -49 -62q-30 -16 -80 -16v-49h104v-297h84z" />
    <glyph glyph-name="threequarters" unicode="&#xbe;" horiz-adv-x="797" 
d="M771 84v62h-39v268h-89l-141 -264v-66h150v-84h80v84h39zM654 145h-90l90 169v-169zM646 758h-74l-424 -772h75zM290 447q0 42 -13 67q-18 33 -52 39q26 10 42 34q14 23 14 64q0 42 -36 72q-36 27 -84 27q-53 0 -89 -21t-42 -65l-2 -20l1 -19h82v6q0 35 12 48
q10 13 32 13q23 0 32 -15t9 -45q0 -31 -23 -45q-16 -9 -58 -9v-55q42 0 57 -4q32 -11 32 -59q0 -52 -13 -66q-13 -16 -39 -16q-27 0 -39 31q-6 18 -6 43v15h-82l2 -44l2 -21l5 -22q9 -31 47 -46q36 -16 88 -16q50 0 86 33q35 34 35 96z" />
    <glyph glyph-name="questiondown" unicode="&#xbf;" horiz-adv-x="490" 
d="M340 621v131h-125v-131h125zM438 201h-124q0 -42 -3 -57q-7 -34 -29 -47l-17 -8q-10 -3 -26 -3q-16 2 -33 23q-17 20 -17 63q0 41 29 91q5 10 60 77q37 44 49 86q7 17 7 26q2 10 2 25l2 62v12h-117l-4 -45q0 -14 -1 -17q0 -1 -2 -9q-1 -5 -2 -9q-4 -12 -12 -25
q-22 -35 -65 -87l-36 -44l-23 -35q-25 -48 -25 -122t54 -125q53 -51 125 -51t119 25q47 24 69 70l11 27q6 18 6 29z" />
    <glyph glyph-name="Agrave" unicode="&#xc0;" horiz-adv-x="547" 
d="M342 814l-84 139h-125l148 -139h61zM537 0l-172 752h-187l-168 -752h142l36 189h162l37 -189h150zM328 304h-117l59 313z" />
    <glyph glyph-name="Aacute" unicode="&#xc1;" horiz-adv-x="547" 
d="M414 953h-125l-84 -139h61zM537 0l-172 752h-187l-168 -752h142l36 189h162l37 -189h150zM328 304h-117l59 313z" />
    <glyph glyph-name="Acircumflex" unicode="&#xc2;" horiz-adv-x="547" 
d="M408 814l-84 139h-101l-84 -139h60l74 73l75 -73h60zM537 0l-172 752h-187l-168 -752h142l36 189h162l37 -189h150zM328 304h-117l59 313z" />
    <glyph glyph-name="Atilde" unicode="&#xc3;" horiz-adv-x="547" 
d="M410 947h-43q-6 -20 -13 -27q-10 -10 -26 -10q-16 2 -23 4q-5 1 -19 4q-4 1 -10 3q-36 12 -62 12q-29 0 -52 -39q-16 -24 -25 -74h43q4 8 8 15q1 4 6 10q12 9 26 9l25 -4l25 -6q35 -11 63 -11q30 0 52 39q15 25 25 75zM537 0l-172 752h-187l-168 -752h142l36 189h162
l37 -189h150zM328 304h-117l59 313z" />
    <glyph glyph-name="Adieresis" unicode="&#xc4;" horiz-adv-x="547" 
d="M410 826v115h-107v-115h107zM244 826v115h-107v-115h107zM537 0l-172 752h-187l-168 -752h142l36 189h162l37 -189h150zM328 304h-117l59 313z" />
    <glyph glyph-name="Aring" unicode="&#xc5;" horiz-adv-x="547" 
d="M369 865q0 41 -30 69q-30 29 -68 29q-39 0 -68 -29q-29 -30 -29 -70q0 -39 29 -68q28 -28 70 -28q43 0 69 28q27 29 27 69zM311 865q0 -16 -11 -27t-29 -11q-17 0 -28 11t-11 27t11 27q10 10 28 10q16 0 29 -11q11 -13 11 -26zM537 0l-172 740h-187l-168 -740h142l36 189
h162l37 -189h150zM328 304h-117l59 313z" />
    <glyph glyph-name="AE" unicode="&#xc6;" horiz-adv-x="766" 
d="M727 0v127h-243v209h225v115h-225v176h241v125h-461l-285 -752h148l64 191h159v-191h377zM350 299h-123l105 328h18v-328z" />
    <glyph glyph-name="Ccedilla" unicode="&#xc7;" horiz-adv-x="549" 
d="M498 268h-135q0 -62 -6 -94q-12 -63 -44 -72l-20 -3l-24 -2q-13 1 -33 7q-16 7 -24 25q-7 16 -12 38q-5 23 -5 55l-2 54l-2 76l1 132q0 33 3 60q3 31 7 44q19 70 73 70q53 0 73 -47q12 -30 12 -72l-1 -19h137q0 83 -29 152q-39 80 -113 92l-41 6l-80 2q-57 0 -112 -55
q-45 -48 -61 -135q-12 -63 -12 -140l1 -123q0 -16 1 -27q0 -22 4 -50l7 -59l7 -50q12 -65 59 -103q47 -39 113 -45v-89l40 -3q23 -8 23 -26q0 -19 -16 -29q-15 -6 -35 -6l-26 2l-35 6l-35 6v-69l59 -9l39 -4l21 -1q30 0 54 7q38 11 47 31l8 19l7 22q4 11 4 40q0 28 -29 54
q-27 21 -69 25v23q22 0 41 3q17 3 33 8q37 14 57 32q43 38 56 95q14 59 14 146z" />
    <glyph glyph-name="Egrave" unicode="&#xc8;" horiz-adv-x="494" 
d="M322 814l-84 139h-125l149 -139h60zM455 0v127h-252v207h231v119h-231v174h246v125h-385v-752h391z" />
    <glyph glyph-name="Eacute" unicode="&#xc9;" horiz-adv-x="494" 
d="M395 953h-125l-84 -139h60zM455 0v127h-252v207h231v119h-231v174h246v125h-385v-752h391z" />
    <glyph glyph-name="Ecircumflex" unicode="&#xca;" horiz-adv-x="494" 
d="M389 814l-84 139h-102l-84 -139h61l74 73l74 -73h61zM455 0v127h-252v207h231v119h-231v174h246v125h-385v-752h391z" />
    <glyph glyph-name="Edieresis" unicode="&#xcb;" horiz-adv-x="494" 
d="M391 826v115h-108v-115h108zM225 826v115h-108v-115h108zM455 0v127h-252v207h231v119h-231v174h246v125h-385v-752h391z" />
    <glyph glyph-name="Igrave" unicode="&#xcc;" horiz-adv-x="268" 
d="M203 814l-84 139h-125l149 -139h60zM203 0v752h-139v-752h139z" />
    <glyph glyph-name="Iacute" unicode="&#xcd;" horiz-adv-x="268" 
d="M275 953h-125l-84 -139h61zM203 0v752h-139v-752h139z" />
    <glyph glyph-name="Icircumflex" unicode="&#xce;" horiz-adv-x="268" 
d="M270 814l-84 139h-102l-84 -139h61l74 73l74 -73h61zM203 0v752h-139v-752h139z" />
    <glyph glyph-name="Idieresis" unicode="&#xcf;" horiz-adv-x="268" 
d="M271 826v115h-107v-115h107zM105 826v115h-107v-115h107zM203 0v752h-139v-752h139z" />
    <glyph glyph-name="Eth" unicode="&#xd0;" horiz-adv-x="590" 
d="M543 447q0 36 -3 69q-3 27 -8 56q-17 72 -49 113q-43 52 -106 61q-8 2 -22 4q-7 1 -19 1l-45 1h-225v-303h-70v-99h70v-350q78 0 174 2q31 1 58 1q43 1 57 1q44 6 67 16q51 24 78 78q22 42 31 114q5 32 5 52l3 62l3 49zM398 339q0 -64 -6 -108q-12 -77 -38 -100
q-13 -13 -39 -18q-1 0 -7 -1q-7 -2 -13 -3h-25l-34 1l-33 1v239h113v99h-113v194l11 1q68 0 95 -4t39 -13q31 -23 43 -95q7 -34 7 -108v-85z" />
    <glyph glyph-name="Ntilde" unicode="&#xd1;" horiz-adv-x="596" 
d="M434 947h-43q-5 -14 -14 -25q-10 -12 -26 -12h-2q-14 2 -20 4q-7 1 -24 6l-5 1q-36 12 -62 12q-30 0 -53 -39q-16 -24 -25 -74h43q6 19 16 26q10 8 23 8q16 0 40 -7q29 -8 45 -11q18 -3 31 -3q29 0 51 40q15 25 25 74zM531 0v752h-131l4 -525l-197 525h-143v-752h131
l-4 527l198 -527h142z" />
    <glyph glyph-name="Ograve" unicode="&#xd2;" horiz-adv-x="588" 
d="M361 814l-84 139h-125l149 -139h60zM538 290v105v6q-2 16 -2 22v25l-1 60v23q0 1 -1 6q-1 14 -4 27l-15 55q-23 60 -56 96q-12 14 -18 18l-3 3q-9 6 -16 11q-19 13 -43 16l-47 6l-88 2q-67 0 -124 -63q-46 -49 -61 -150q-10 -53 -10 -184q0 -123 9 -182q15 -101 63 -149
q58 -61 162 -61q103 0 159 41q54 41 75 109t21 158zM396 292l-2 -53q0 -8 -2 -22q0 -4 -3 -15l-2 -12q-11 -54 -34 -77q-8 -10 -24 -13q-15 -5 -28 -5h-25q-35 0 -61 47q-12 21 -18 46q-6 24 -6 53v98q0 33 2 112v9q1 36 2 56v17q6 55 13 67q16 32 36 46q19 13 62 13
q42 0 68 -56q11 -26 17 -53q5 -33 5 -66v-108v-84z" />
    <glyph glyph-name="Oacute" unicode="&#xd3;" horiz-adv-x="588" 
d="M435 953h-125l-85 -139h60zM538 290v105v6q-2 16 -2 22v25l-1 60v23q0 1 -1 6q-1 14 -4 27l-15 55q-23 60 -56 96q-12 14 -18 18l-3 3q-9 6 -16 11q-19 13 -43 16l-47 6l-88 2q-67 0 -124 -63q-46 -49 -61 -150q-10 -53 -10 -184q0 -123 9 -182q15 -101 63 -149
q58 -61 162 -61q103 0 159 41q54 41 75 109t21 158zM396 292l-2 -53q0 -8 -2 -22q0 -4 -3 -15l-2 -12q-11 -54 -34 -77q-8 -10 -24 -13q-15 -5 -28 -5h-25q-35 0 -61 47q-12 21 -18 46q-6 24 -6 53v98q0 33 2 112v9q1 36 2 56v17q6 55 13 67q16 32 36 46q19 13 62 13
q42 0 68 -56q11 -26 17 -53q5 -33 5 -66v-108v-84z" />
    <glyph glyph-name="Ocircumflex" unicode="&#xd4;" horiz-adv-x="588" 
d="M429 814l-84 139h-102l-84 -139h61l73 73l75 -73h61zM538 290v105v6q-2 16 -2 22v25l-1 60v23q0 1 -1 6q-1 14 -4 27l-15 55q-23 60 -56 96q-12 14 -18 18l-3 3q-9 6 -16 11q-19 13 -43 16l-47 6l-88 2q-67 0 -124 -63q-46 -49 -61 -150q-10 -53 -10 -184q0 -123 9 -182
q15 -101 63 -149q58 -61 162 -61q103 0 159 41q54 41 75 109t21 158zM396 292l-2 -53q0 -8 -2 -22q0 -4 -3 -15l-2 -12q-11 -54 -34 -77q-8 -10 -24 -13q-15 -5 -28 -5h-25q-35 0 -61 47q-12 21 -18 46q-6 24 -6 53v98q0 33 2 112v9q1 36 2 56v17q6 55 13 67q16 32 36 46
q19 13 62 13q42 0 68 -56q11 -26 17 -53q5 -33 5 -66v-108v-84z" />
    <glyph glyph-name="Otilde" unicode="&#xd5;" horiz-adv-x="588" 
d="M431 947h-43q-5 -14 -14 -25q-10 -12 -26 -12h-2q-14 2 -20 4q-7 1 -24 6l-5 1q-36 12 -63 12q-29 0 -52 -39q-16 -24 -26 -74h44q6 16 16 25q11 9 23 9l25 -4l25 -6q35 -11 63 -11q31 0 53 39q16 24 26 75zM538 290v105v6q-2 16 -2 22v25l-1 60v23q0 1 -1 6q-1 14 -4 27
l-15 55q-23 60 -56 96q-12 14 -18 18l-3 3q-9 6 -16 11q-19 13 -43 16l-47 6l-88 2q-67 0 -124 -63q-46 -49 -61 -150q-10 -53 -10 -184q0 -123 9 -182q15 -101 63 -149q58 -61 162 -61q103 0 159 41q54 41 75 109t21 158zM396 292l-2 -53q0 -8 -2 -22q0 -4 -3 -15l-2 -12
q-11 -54 -34 -77q-8 -10 -24 -13q-15 -5 -28 -5h-25q-35 0 -61 47q-12 21 -18 46q-6 24 -6 53v98q0 33 2 112v9q1 36 2 56v17q6 55 13 67q16 32 36 46q19 13 62 13q42 0 68 -56q11 -26 17 -53q5 -33 5 -66v-108v-84z" />
    <glyph glyph-name="Odieresis" unicode="&#xd6;" horiz-adv-x="588" 
d="M431 826v115h-109v-115h109zM264 826v115h-108v-115h108zM538 290v105v6q-2 16 -2 22v25l-1 60v23q0 1 -1 6q-1 14 -4 27l-15 55q-23 60 -56 96q-12 14 -18 18l-3 3q-9 6 -16 11q-19 13 -43 16l-47 6l-88 2q-67 0 -124 -63q-46 -49 -61 -150q-10 -53 -10 -184
q0 -123 9 -182q15 -101 63 -149q58 -61 162 -61q103 0 159 41q54 41 75 109t21 158zM396 292l-2 -53q0 -8 -2 -22q0 -4 -3 -15l-2 -12q-11 -54 -34 -77q-8 -10 -24 -13q-15 -5 -28 -5h-25q-35 0 -61 47q-4 7 -10 21q-3 7 -7 21q-6 24 -6 57l-1 98q0 33 2 112v9q1 36 2 56v17
q6 55 13 67q16 32 36 46q19 13 62 13q42 0 68 -56q11 -26 17 -53q5 -33 5 -66v-108v-84z" />
    <glyph glyph-name="multiply" unicode="&#xd7;" horiz-adv-x="832" 
d="M663 123l-177 177l171 171l-70 70l-170 -172l-176 176l-71 -71l176 -175l-173 -173l70 -69l173 172l176 -176z" />
    <glyph glyph-name="Oslash" unicode="&#xd8;" horiz-adv-x="588" 
d="M566 738l-62 41l-41 -66q-20 19 -40 30q-24 12 -39 17q-29 10 -116 10q-82 0 -141 -53q-48 -46 -66 -134q-12 -64 -12 -140l2 -107l4 -81l8 -77l9 -44l10 -32l-64 -108l62 -39l51 76q44 -33 79 -40q38 -8 88 -8q51 0 99 14q53 19 79 53q27 40 43 97q5 17 10 38l6 27
q2 18 2 46q1 4 2 9q0 5 2 14v44v11v13v14l-2 65l-6 74q-4 44 -11 86q-6 37 -12 55zM385 574l-192 -304l-2 47v19v76l2 44l2 55q0 32 3 51l11 40q12 29 32 43q19 13 57 13q36 0 59 -20q24 -19 28 -64zM397 325q0 -95 -11 -147q-15 -54 -40 -69q-18 -12 -33 -12l-43 -3
q-26 0 -44 22q-18 23 -21 48l188 305z" />
    <glyph glyph-name="Ugrave" unicode="&#xd9;" horiz-adv-x="599" 
d="M368 814l-84 139h-125l149 -139h60zM534 232v520h-137q0 -581 -13 -608q-21 -47 -83 -47q-63 0 -84 45q-13 25 -13 102v508h-140l2 -573l4 -46q15 -82 81 -118q59 -33 127 -33q71 0 111 9q57 15 80 40q23 23 36 44q17 27 20 50l4 23l3 27z" />
    <glyph glyph-name="Uacute" unicode="&#xda;" horiz-adv-x="599" 
d="M439 953h-125l-83 -139h61zM534 232v520h-137q0 -581 -13 -608q-21 -47 -83 -47q-63 0 -84 45q-13 25 -13 102v508h-140l2 -573l4 -46q15 -82 81 -118q59 -33 127 -33q71 0 111 9q57 15 80 40q23 23 36 44q17 27 20 50l4 23l3 27z" />
    <glyph glyph-name="Ucircumflex" unicode="&#xdb;" horiz-adv-x="599" 
d="M435 814l-84 139h-102l-84 -139h61l73 73l75 -73h61zM534 232v520h-137q0 -581 -13 -608q-21 -47 -83 -47q-63 0 -84 45q-13 25 -13 102v508h-140l2 -573l4 -46q15 -82 81 -118q59 -33 127 -33q71 0 111 9q57 15 80 40q23 23 36 44q17 27 20 50l4 23l3 27z" />
    <glyph glyph-name="Udieresis" unicode="&#xdc;" horiz-adv-x="599" 
d="M437 826v115h-108v-115h108zM271 826v115h-108v-115h108zM534 232v520h-137q0 -581 -13 -608q-21 -47 -83 -47q-63 0 -84 45q-13 25 -13 102v508h-140l2 -573l4 -46q15 -82 81 -118q59 -33 127 -33q71 0 111 9q57 15 80 40q23 23 36 44q17 27 20 50l4 23l3 27z" />
    <glyph glyph-name="Yacute" unicode="&#xdd;" horiz-adv-x="551" 
d="M416 953h-125l-84 -139h61zM541 752h-150l-114 -283l-113 283h-154l195 -434v-318h143v318z" />
    <glyph glyph-name="Thorn" unicode="&#xde;" horiz-adv-x="545" 
d="M516 406q0 104 -41 154q-37 42 -111 52q-15 2 -59 4q-27 1 -102 1v135h-139v-752h139v184q211 0 262 57q51 56 51 165zM377 402q0 -68 -33 -94q-30 -21 -100 -21h-45v225l13 1h12q93 0 121 -22q32 -26 32 -89z" />
    <glyph glyph-name="germandbls" unicode="&#xdf;" horiz-adv-x="486" 
d="M442 221l-4 82q-9 45 -25 72q-22 37 -58 55q39 21 54 60q16 32 16 83t-19 90t-59 67q-21 16 -47 21q-25 5 -98 5q-72 0 -112 -64q-33 -51 -33 -161v-531h127q0 594 8 621q15 36 48 36q35 0 51 -31q11 -24 11 -55q0 -32 -7 -60q-7 -31 -24 -37l-16 -4l-17 -1v-90
q50 0 66 -46q9 -27 9 -83v-66q0 -90 -29 -90q-17 0 -22 1t-13 3l-17 6v-98l32 -9q18 -3 49 -3q34 0 57 17q22 16 40 42q12 18 17 33q7 19 11 51q4 31 4 84z" />
    <glyph glyph-name="agrave" unicode="&#xe0;" horiz-adv-x="484" 
d="M311 625l-84 139h-125l148 -139h61zM451 0q-19 37 -19 80q0 421 -43 461q-43 39 -143 39q-97 0 -146 -44t-49 -136v-4h127l4 37l9 26q17 27 47 27q32 0 50 -12q17 -14 17 -49q0 -36 -68 -68q-114 -54 -126 -63q-67 -49 -67 -132q0 -82 35 -129q35 -48 88 -48q54 0 88 19
q33 19 56 51l3 -28l10 -27h127zM308 232q0 -51 -11 -90q-18 -56 -53 -56t-50 19q-15 20 -15 53t19 61q20 28 49 45l60 33l1 -6v-7v-52z" />
    <glyph glyph-name="aacute" unicode="&#xe1;" horiz-adv-x="484" 
d="M383 764h-125l-84 -139h60zM451 0q-19 37 -19 80q0 421 -43 461q-43 39 -143 39q-97 0 -146 -44t-49 -136v-4h127l4 37l9 26q17 27 47 27q32 0 50 -12q17 -14 17 -49q0 -36 -68 -68q-114 -54 -126 -63q-67 -49 -67 -132q0 -82 35 -129q35 -48 88 -48q54 0 88 19
q33 19 56 51l3 -28l10 -27h127zM308 232q0 -51 -11 -90q-18 -56 -53 -56t-50 19q-15 20 -15 53t19 61q20 28 49 45l60 33l1 -6v-7v-52z" />
    <glyph glyph-name="acircumflex" unicode="&#xe2;" horiz-adv-x="484" 
d="M377 625l-84 139h-102l-84 -139h61l74 72l74 -72h61zM451 0q-19 37 -19 80q0 421 -43 461q-43 39 -143 39q-97 0 -146 -44t-49 -136v-4h127l4 37l9 26q17 27 47 27q32 0 50 -12q17 -14 17 -49q0 -36 -68 -68q-114 -54 -126 -63q-67 -49 -67 -132q0 -82 35 -129
q35 -48 88 -48q54 0 88 19q33 19 56 51l3 -28l10 -27h127zM308 232q0 -51 -11 -90q-18 -56 -53 -56t-50 19q-15 20 -15 53t19 61q20 28 49 45l60 33l1 -6v-7v-52z" />
    <glyph glyph-name="atilde" unicode="&#xe3;" horiz-adv-x="484" 
d="M379 758h-43q-6 -21 -15 -28q-10 -9 -25 -9h-2q-14 2 -20 4q-7 1 -24 6l-5 1q-36 12 -57 12q-25 0 -46 -24q-25 -29 -37 -89h43q6 19 16 26q10 8 24 8l21 -3l29 -8q21 -8 34 -9q18 -2 30 -2q18 0 29 10q13 11 23 30q16 22 25 75zM451 0q-19 37 -19 80q0 421 -43 461
q-43 39 -143 39q-97 0 -146 -44t-49 -136v-4h127l4 37l9 26q17 27 47 27q32 0 50 -12q17 -14 17 -49q0 -36 -68 -68q-114 -54 -126 -63q-67 -49 -67 -132q0 -82 35 -129q35 -48 88 -48q54 0 88 19q33 19 56 51l3 -28l10 -27h127zM308 232q0 -51 -11 -90q-18 -56 -53 -56
t-50 19q-15 20 -15 53t19 61q20 28 49 45l60 33l1 -6v-7v-52z" />
    <glyph glyph-name="adieresis" unicode="&#xe4;" horiz-adv-x="484" 
d="M379 637v115h-108v-115h108zM213 637v115h-108v-115h108zM451 0q-19 37 -19 80q0 421 -43 461q-43 39 -143 39q-97 0 -146 -44t-49 -136v-4h127l4 37l9 26q17 27 47 27q32 0 50 -12q17 -14 17 -49q0 -36 -68 -68q-114 -54 -126 -63q-67 -49 -67 -132q0 -82 35 -129
q35 -48 88 -48q54 0 88 19q33 19 56 51l3 -28l10 -27h127zM308 232q0 -51 -11 -90q-18 -56 -53 -56t-50 19q-15 20 -15 53t19 61q20 28 49 45l60 33l1 -6v-7v-52z" />
    <glyph glyph-name="aring" unicode="&#xe5;" horiz-adv-x="484" 
d="M355 705q0 43 -28 69q-29 26 -69 26q-42 0 -70 -25t-28 -70q0 -43 28 -70q29 -27 69 -27q42 0 70 28t28 69zM297 705q0 -16 -12 -27q-13 -11 -28 -11q-17 2 -28 12q-10 10 -10 26q0 17 12 27q13 11 28 11q18 -1 28 -12q10 -10 10 -26zM451 0q-19 37 -19 80q0 421 -43 461
q-43 39 -143 39q-97 0 -146 -44t-49 -136v-4h127l4 37l9 26q17 27 47 27q32 0 50 -12q17 -14 17 -49q0 -36 -68 -68q-114 -54 -126 -63q-67 -49 -67 -132q0 -82 35 -129q35 -48 88 -48q54 0 88 19q33 19 56 51l3 -28l10 -27h127zM308 232q0 -51 -11 -90q-18 -56 -53 -56
t-50 19q-15 20 -15 53t19 61q20 28 49 45l60 33l1 -6v-7v-52z" />
    <glyph glyph-name="ae" unicode="&#xe6;" horiz-adv-x="707" 
d="M670 264q0 143 -13 191q-18 62 -53 91q-45 36 -97 36q-53 0 -82 -9q-28 -11 -50 -30q-26 18 -63 29q-34 9 -100 9q-67 0 -115 -42t-48 -135v-4h121q0 46 16 65q17 23 51 23t49 -17q14 -19 14 -51q0 -34 -67 -64q-102 -46 -123 -63q-66 -54 -66 -110q0 -58 9 -90l9 -29
l10 -23q17 -35 60 -47q29 -10 78 -10q45 0 80 13q40 16 64 46q27 -34 59 -45q36 -14 65 -14q12 0 32 2q9 1 26 4l5 1l47 11q37 10 55 46q15 30 21 74l4 24v47h-121q0 -43 -9 -69q-15 -41 -37 -41l-37 4l-16 6q-16 7 -20 53l-2 47l1 42l1 29h242zM549 354h-121l-1 48
q0 34 18 58q14 20 47 20q32 0 47 -33q10 -19 10 -66v-27zM303 215q0 -56 -9 -85q-18 -49 -53 -49q-36 0 -53 23q-12 21 -12 53q0 35 19 61q17 24 47 42l59 35z" />
    <glyph glyph-name="ccedilla" unicode="&#xe7;" horiz-adv-x="454" 
d="M413 223h-123l1 -15v-32q0 -8 -2 -23v-3q-1 -11 -5 -28q-7 -28 -19 -31l-20 -6l-29 -1q-20 0 -32 39q-7 18 -7 66q0 235 8 259q12 31 48 31t48 -40q7 -18 7 -70h125q0 105 -38 155q-44 56 -134 56q-92 0 -137 -39q-39 -33 -53 -101l-8 -49l-3 -48l1 -67l1 -42l5 -67
l3 -37l10 -33l18 -36l25 -37q15 -18 35 -25q25 -8 56 -11v-92l39 -3q24 -8 24 -26q0 -19 -16 -29q-13 -6 -31 -6l-40 3l-60 11v-69l58 -9q12 -2 36 -4q12 -1 35 -1q40 0 76 27q35 26 35 73q0 46 -30 72q-23 22 -69 26v26q34 0 59 9q27 9 48 28q34 28 46 84q9 42 9 115z" />
    <glyph glyph-name="egrave" unicode="&#xe8;" horiz-adv-x="478" 
d="M308 625l-84 139h-125l148 -139h61zM435 264q0 75 -1 95q-1 29 -3 48l-11 53q-7 24 -18 42q-26 47 -72 65q-22 8 -44 11l-78 2q-52 0 -99 -35q-39 -31 -55 -90q-12 -49 -12 -149l1 -87l3 -51q10 -85 47 -128q48 -54 149 -54t147 52q42 48 42 155h-123q0 -44 -13 -71
q-16 -39 -56 -39q-39 0 -56 48q-5 17 -7 30q-1 6 -1 29l1 46l1 28h258zM304 354h-128v19v37q0 30 18 52q17 18 50 18q35 0 50 -33q10 -20 10 -70v-23z" />
    <glyph glyph-name="eacute" unicode="&#xe9;" horiz-adv-x="478" 
d="M380 764h-126l-83 -139h60zM435 264q0 75 -1 95q-1 29 -3 48l-11 53q-7 24 -18 42q-26 47 -72 65q-22 8 -44 11l-78 2q-52 0 -99 -35q-39 -31 -55 -90q-12 -49 -12 -149l1 -87l3 -51q10 -85 47 -128q48 -54 149 -54t147 52q42 48 42 155h-123q0 -44 -13 -71
q-16 -39 -56 -39q-39 0 -56 48q-5 17 -7 30q-1 6 -1 29l1 46l1 28h258zM304 354h-128v19v37q0 30 18 52q17 18 50 18q35 0 50 -33q10 -20 10 -70v-23z" />
    <glyph glyph-name="ecircumflex" unicode="&#xea;" horiz-adv-x="478" 
d="M374 625l-84 139h-102l-83 -139h60l73 72l75 -72h61zM435 264q0 75 -1 95q-1 29 -3 48l-11 53q-7 24 -18 42q-26 47 -72 65q-22 8 -44 11l-78 2q-52 0 -99 -35q-39 -31 -55 -90q-12 -49 -12 -149l1 -87l3 -51q10 -85 47 -128q48 -54 149 -54t147 52q42 48 42 155h-123
q0 -44 -13 -71q-16 -39 -56 -39q-39 0 -56 48q-5 17 -7 30q-1 6 -1 29l1 46l1 28h258zM304 354h-128v19v37q0 30 18 52q17 18 50 18q35 0 50 -33q10 -20 10 -70v-23z" />
    <glyph glyph-name="edieresis" unicode="&#xeb;" horiz-adv-x="478" 
d="M375 637v115h-106v-115h106zM210 637v115h-107v-115h107zM435 264q0 97 -5 144q-9 61 -28 94q-26 47 -72 65q-22 8 -44 11l-78 2q-52 0 -99 -35q-39 -31 -55 -90q-12 -49 -12 -149q0 -20 1 -36t1 -35l1 -67q11 -85 48 -128q48 -54 149 -54t147 52q42 48 42 155h-123
l-4 -40l-9 -31q-16 -39 -56 -39q-39 0 -56 48q-9 30 -9 59l1 46l1 28h259zM304 354h-128v19l-1 37q0 31 18 50q19 20 51 20q35 0 50 -33q10 -20 10 -70v-23z" />
    <glyph glyph-name="igrave" unicode="&#xec;" horiz-adv-x="242" 
d="M189 625l-84 139h-125l149 -139h60zM186 0v564h-129v-564h129z" />
    <glyph glyph-name="iacute" unicode="&#xed;" horiz-adv-x="242" 
d="M262 764h-125l-84 -139h60zM186 0v564h-129v-564h129z" />
    <glyph glyph-name="icircumflex" unicode="&#xee;" horiz-adv-x="242" 
d="M256 625l-84 139h-102l-84 -139h61l74 72l74 -72h61zM186 0v564h-129v-564h129z" />
    <glyph glyph-name="idieresis" unicode="&#xef;" horiz-adv-x="242" 
d="M258 637v115h-108v-115h108zM92 637v115h-108v-115h108zM186 0v564h-129v-564h129z" />
    <glyph glyph-name="eth" unicode="&#xf0;" horiz-adv-x="479" 
d="M438 262q0 62 -8 118q-7 50 -23 93q-37 99 -126 168l106 56l-33 55l-125 -72l-28 18l-18 11l-35 19l-46 24l-24 -68l26 -16l44 -27l-109 -59l27 -51l129 71l42 -41l8 -9q19 -21 26 -32q-16 14 -36 18q-20 5 -35 5q-14 0 -17 -1l-6 -1q-5 -2 -10 -3l-26 -10l-11 -5
q-43 -24 -63 -68q-17 -33 -22 -69q-3 -22 -5 -64v-2q-1 -21 -1 -71q0 -38 3 -71q3 -37 7 -53q15 -69 53 -101q47 -38 135 -38q89 0 132 36q43 34 58 101q11 49 11 139zM307 278l-1 -78q0 -37 -8 -67q-15 -47 -41 -47l-38 2l-17 6q-28 21 -28 111l-1 76l-1 66v6q0 37 10 63
q15 40 57 40q40 0 57 -41q11 -27 11 -79v-58z" />
    <glyph glyph-name="ntilde" unicode="&#xf1;" horiz-adv-x="484" 
d="M379 758h-43q-6 -21 -15 -28q-10 -9 -25 -9h-2q-14 2 -20 4q-7 1 -24 6l-5 1q-36 12 -57 12q-25 0 -46 -24q-25 -29 -37 -89h43q6 19 16 26q10 8 24 8l21 -3l29 -8q21 -8 34 -9q18 -2 30 -2q18 0 29 10q13 11 23 30q16 22 25 75zM430 0q0 503 -33 542q-34 39 -82 39
q-47 0 -79 -21q-33 -22 -50 -52v56h-129v-564h131q0 401 8 430q12 39 48 39q37 0 50 -30q11 -24 11 -60v-379h125z" />
    <glyph glyph-name="ograve" unicode="&#xf2;" horiz-adv-x="479" 
d="M309 625l-84 139h-125l148 -139h61zM439 296q0 90 -12 142q-15 70 -57 103q-48 39 -135 39q-86 0 -133 -45q-39 -38 -53 -112q-10 -47 -10 -145q0 -91 9 -141q15 -72 54 -108q46 -43 138 -43q93 0 139 45q39 38 53 115q7 36 7 150zM305 281l-1 -45q0 -108 -18 -129
t-56 -21q-39 0 -51 51q-4 13 -4 72l-3 92l-1 80q0 51 21 75q20 23 59 23t50 -62q4 -13 4 -61v-13v-17v-45z" />
    <glyph glyph-name="oacute" unicode="&#xf3;" horiz-adv-x="479" 
d="M381 764h-125l-84 -139h60zM439 296q0 90 -12 142q-15 70 -57 103q-48 39 -135 39q-86 0 -133 -45q-39 -38 -53 -112q-10 -47 -10 -145q0 -91 9 -141q15 -72 54 -108q46 -43 138 -43q93 0 139 45q39 38 53 115q7 36 7 150zM305 281l-1 -45q0 -108 -18 -129t-56 -21
q-39 0 -51 51q-4 13 -4 72l-3 92l-1 80q0 51 21 75q20 23 59 23t50 -62q4 -13 4 -61v-13v-17v-45z" />
    <glyph glyph-name="ocircumflex" unicode="&#xf4;" horiz-adv-x="479" 
d="M375 625l-84 139h-102l-84 -139h61l74 72l74 -72h61zM439 296q0 90 -12 142q-15 70 -57 103q-48 39 -135 39q-86 0 -133 -45q-39 -38 -53 -112q-10 -47 -10 -145q0 -91 9 -141q15 -72 54 -108q46 -43 138 -43q93 0 139 45q39 38 53 115q7 36 7 150zM305 281l-1 -45
q0 -108 -18 -129t-56 -21q-39 0 -51 51q-4 13 -4 72l-3 92l-1 80q0 51 21 75q20 23 59 23t50 -62q4 -13 4 -61v-13v-17v-45z" />
    <glyph glyph-name="otilde" unicode="&#xf5;" horiz-adv-x="479" 
d="M377 758h-43q-6 -21 -15 -28q-10 -9 -25 -9h-2q-14 2 -20 4q-7 1 -24 6l-5 1q-36 12 -61 12q-28 0 -53 -40q-19 -31 -25 -73h42q6 19 16 26q10 8 24 8l21 -3l29 -8q21 -7 35 -9q18 -2 29 -2q31 0 53 40q15 27 24 75zM439 296q0 90 -12 142q-15 70 -57 103q-48 39 -135 39
q-86 0 -133 -45q-39 -38 -53 -112q-10 -47 -10 -145q0 -91 9 -141q15 -72 54 -108q46 -43 138 -43q93 0 139 45q39 38 53 115q7 36 7 150zM305 281l-1 -45q0 -108 -18 -129t-56 -21q-39 0 -51 51q-4 13 -4 72l-3 92l-1 80q0 51 21 75q20 23 59 23t50 -62q4 -13 4 -61v-13
v-17v-45z" />
    <glyph glyph-name="odieresis" unicode="&#xf6;" horiz-adv-x="479" 
d="M377 637v115h-107v-115h107zM211 637v115h-107v-115h107zM439 296q0 90 -12 142q-15 70 -57 103q-48 39 -135 39q-86 0 -133 -45q-39 -38 -53 -112q-10 -47 -10 -145q0 -91 9 -141q15 -72 54 -108q46 -43 138 -43q93 0 139 45q39 38 53 115q7 36 7 150zM305 281l-1 -45
q0 -108 -18 -129t-56 -21q-39 0 -51 51q-4 13 -4 72l-3 92l-1 80q0 51 21 75q20 23 59 23t50 -62q4 -13 4 -61v-13v-17v-45z" />
    <glyph glyph-name="divide" unicode="&#xf7;" horiz-adv-x="832" 
d="M470 391v115h-107v-115h107zM709 250v98h-586v-98h586zM470 92v115h-107v-115h107z" />
    <glyph glyph-name="oslash" unicode="&#xf8;" horiz-adv-x="479" 
d="M471 586l-47 35l-53 -82q-32 26 -62 32q-31 9 -97 9t-113 -45q-38 -38 -52 -113q-8 -48 -8 -147q0 -100 27 -195l-68 -103l49 -36l57 86q35 -26 62 -32q30 -9 97 -9q68 0 115 44q38 35 52 110q8 48 8 124q0 31 -2 73q-1 24 -5 57q-7 53 -21 96zM303 426l-131 -196
q0 206 20 232q17 20 47 20q31 0 43 -14q12 -13 21 -42zM307 187q0 -63 -18 -84q-19 -21 -50 -21q-32 0 -46 18q-15 17 -15 48l129 198v-159z" />
    <glyph glyph-name="ugrave" unicode="&#xf9;" horiz-adv-x="484" 
d="M311 625l-84 139h-125l148 -139h61zM428 0v564h-131q0 -402 -8 -429q-15 -37 -50 -37q-36 0 -50 32q-7 17 -7 65v369h-127q0 -504 34 -541q33 -38 81 -38q50 0 81 19q29 20 50 53v-57h127z" />
    <glyph glyph-name="uacute" unicode="&#xfa;" horiz-adv-x="484" 
d="M383 764h-125l-84 -139h60zM428 0v564h-131q0 -402 -8 -429q-15 -37 -50 -37q-36 0 -50 32q-7 17 -7 65v369h-127q0 -504 34 -541q33 -38 81 -38q50 0 81 19q29 20 50 53v-57h127z" />
    <glyph glyph-name="ucircumflex" unicode="&#xfb;" horiz-adv-x="484" 
d="M377 625l-84 139h-102l-84 -139h61l74 72l74 -72h61zM428 0v564h-131q0 -402 -8 -429q-15 -37 -50 -37q-36 0 -50 32q-7 17 -7 65v369h-127q0 -504 34 -541q33 -38 81 -38q50 0 81 19q29 20 50 53v-57h127z" />
    <glyph glyph-name="udieresis" unicode="&#xfc;" horiz-adv-x="484" 
d="M379 637v115h-108v-115h108zM213 637v115h-108v-115h108zM428 0v564h-131q0 -402 -8 -429q-15 -37 -50 -37q-36 0 -50 32q-7 17 -7 65v369h-127q0 -504 34 -541q33 -38 81 -38q50 0 81 19q29 20 50 53v-57h127z" />
    <glyph glyph-name="yacute" unicode="&#xfd;" horiz-adv-x="443" 
d="M363 764h-125l-84 -139h61zM434 564h-131l-76 -408l-79 408h-138l144 -582l5 -17l1 -24q0 -17 -27 -24q-7 -4 -30 -4l-17 1v-98l21 -3l55 -1q45 0 79 33q28 28 46 102z" />
    <glyph glyph-name="thorn" unicode="&#xfe;" horiz-adv-x="486" 
d="M445 252l-1 86l-4 64l-9 52l-8 35q-15 44 -41 66q-32 26 -76 26t-75 -19q-32 -19 -43 -50v240h-131v-941h131v238q37 -64 106 -64q70 0 106 45q30 39 39 106q6 42 6 116zM314 231q0 -53 -8 -85q-15 -49 -57 -49t-55 52l-4 30v3q-2 15 -2 21v22l-3 80v21v12l1 20l3 49
l4 24q12 42 42 42t44 -8q14 -9 20 -28q7 -15 10 -39q4 -17 4 -42l1 -82v-43z" />
    <glyph glyph-name="ydieresis" unicode="&#xff;" horiz-adv-x="443" 
d="M359 637v115h-107v-115h107zM193 637v115h-107v-115h107zM434 564h-131l-76 -408l-79 408h-138l144 -582l5 -17l1 -24q0 -17 -27 -24q-7 -4 -30 -4l-17 1v-98l21 -3l55 -1q45 0 79 33q28 28 46 102z" />
  </font>
</defs>
</svg>
